mtllib kayak_blue_top.mtl
o Kayak

# top ring (z=+0.15)
v  2.75   0.000   0.15
v  1.50  -0.200   0.15
v  0.00  -0.275   0.15
v -1.50  -0.200   0.15
v -2.75   0.000   0.15
v -1.50   0.200   0.15
v  0.00   0.275   0.15
v  1.50   0.200   0.15

# cockpit ring (z=+0.15)
v  0.40  -0.225   0.15
v  0.40   0.225   0.15
v -0.40  -0.225   0.15
v -0.40   0.225   0.15

# bottom ring (z=-0.15)
v  2.75   0.000  -0.15
v  1.50  -0.200  -0.15
v  0.00  -0.275  -0.15
v -1.50  -0.200  -0.15
v -2.75   0.000  -0.15
v -1.50   0.200  -0.15
v  0.00   0.275  -0.15
v  1.50   0.200  -0.15

# top deck blue
usemtl deck_blue
f 1 2 3
f 1 3 4
f 1 4 5
f 1 5 6
f 1 6 7
f 1 7 8

# bottom hull grey
usemtl hull_grey
f 20 19 18
f 20 18 17
f 20 17 16
f 20 16 15
f 20 15 14
f 20 14 13

# side panels
f 1 2 14
f 1 14 13
f 2 3 15
f 2 15 14
f 3 4 16
f 3 16 15
f 4 5 17
f 4 17 16
f 5 6 18
f 5 18 17
f 6 7 19
f 6 19 18
f 7 8 20
f 7 20 19
f 8 1 13
f 8 13 20

# cockpit
f 9 10 12
f 9 12 11
