# Blender 3.5.1
# www.blender.org
mtllib paddle60.mtl
g Cylinder.001_Mesh
v 0.774243 0.027842 0.091785
v -0.774662 0.084418 0.037644
v 0.413844 0.003027 -0.014724
v -0.774663 0.085905 0.035118
v 0.774181 0.030772 0.091760
v -0.413813 -0.015696 -0.002518
v 0.443517 0.000541 -0.014387
v -0.443426 -0.017013 0.000334
v 0.755900 0.025429 -0.088448
v -0.756272 -0.071172 -0.053348
v 0.413883 0.000142 -0.014391
v -0.413790 -0.016895 0.000128
v -0.756272 -0.069685 -0.055875
v 0.755837 0.028360 -0.088472
v -0.903159 0.052460 0.043116
v 0.903164 0.009474 0.067195
v 0.443554 -0.002224 -0.013497
v -0.443404 -0.017673 0.003163
v -0.903159 0.053947 0.040590
v 0.903102 0.012404 0.067170
v 0.413920 -0.002623 -0.013501
v -0.413768 -0.017554 0.002957
v -0.909109 0.030520 0.027788
v 0.443588 -0.004763 -0.012085
v 0.909073 0.011458 0.040495
v -0.443383 -0.017768 0.006066
v -0.909110 0.032007 0.025262
v 0.413954 -0.005162 -0.012089
v 0.909011 0.014389 0.040471
v -0.413747 -0.017649 0.005860
v -0.443365 -0.017295 0.008933
v 0.657907 0.027866 0.076944
v -0.658353 0.072989 0.027845
v 0.443618 -0.006977 -0.010205
v 0.657845 0.030796 0.076919
v -0.413729 -0.017176 0.008727
v -0.658354 0.074476 0.025318
v 0.413983 -0.007376 -0.010209
v 0.443642 -0.008781 -0.007929
v -0.443350 -0.016272 0.011651
v -0.653069 -0.068506 -0.054590
v 0.652668 0.025648 -0.086800
v 0.414007 -0.009180 -0.007932
v -0.653070 -0.067019 -0.057117
v -0.413714 -0.016153 0.011445
v 0.652606 0.028578 -0.086825
v -0.443339 -0.014737 0.014118
v 0.545760 0.004257 0.038273
v -0.545725 0.028925 0.026123
v 0.443659 -0.010108 -0.005344
v 0.545698 0.007188 0.038248
v -0.545726 0.030412 0.023597
v -0.413703 -0.014619 0.013912
v 0.414025 -0.010507 -0.005348
v -0.443333 -0.012752 0.016238
v 0.443670 -0.010904 -0.002550
v -0.554074 -0.042205 -0.023485
v 0.553979 0.010381 -0.048244
v 0.553917 0.013312 -0.048268
v -0.554075 -0.040718 -0.026011
v -0.413696 -0.012633 0.016032
v 0.414035 -0.011303 -0.002554
v -0.443330 -0.010390 0.017930
v 0.443672 -0.011140 0.000345
v 0.545236 0.004246 0.038290
v -0.545201 0.028940 0.026132
v 0.414038 -0.011539 0.000341
v -0.545201 0.030427 0.023605
v -0.413694 -0.010271 0.017724
v 0.545174 0.007177 0.038265
v 0.443668 -0.010807 0.003231
v -0.553549 -0.042190 -0.023476
v -0.443333 -0.007744 0.019129
v 0.553454 0.010370 -0.048227
v 0.414033 -0.011206 0.003227
v -0.553550 -0.040703 -0.026003
v 0.553392 0.013301 -0.048251
v -0.413696 -0.007625 0.018923
v 0.443655 -0.009917 0.005996
v -0.438726 0.008858 0.017127
v -0.443339 -0.004915 0.019789
v 0.438842 -0.000650 0.016437
v 0.414021 -0.010316 0.005992
v -0.438727 0.010345 0.014600
v 0.438780 0.002281 0.016413
v -0.413703 -0.004796 0.019583
v 0.443636 -0.008505 0.008534
v -0.438468 -0.018139 -0.000257
v -0.443350 -0.002012 0.019884
v 0.438561 0.000362 -0.015657
v -0.413714 -0.001893 0.019678
v 0.438499 0.003292 -0.015681
v 0.414001 -0.008904 0.008531
v -0.438468 -0.016653 -0.002783
v 0.443610 -0.006625 0.010749
v -0.832856 0.079827 0.044397
v -0.443365 0.000854 0.019411
v 0.832599 0.020941 0.091322
v 0.413976 -0.007024 0.010745
v -0.847446 -0.051427 -0.028051
v 0.847301 0.015856 -0.058502
v -0.413729 0.000973 0.019205
v -0.443383 0.003573 0.018388
v 0.847238 0.018786 -0.058527
v 0.443579 -0.004349 0.012554
v -0.847447 -0.049940 -0.030577
v 0.413945 -0.004748 0.012550
v -0.413747 0.003692 0.018182
v -0.832855 0.078340 0.046924
v 0.832661 0.018010 0.091347
v -0.443404 0.006040 0.016854
v 0.866079 0.016713 0.083954
v 0.443544 -0.001765 0.013880
v -0.866238 0.070964 0.044848
v 0.413910 -0.002164 0.013876
v -0.413768 0.006159 0.016648
v -0.884229 -0.018455 -0.005659
v 0.884123 0.014408 -0.018708
v 0.884061 0.017339 -0.018733
v -0.884229 -0.016968 -0.008185
v -0.866237 0.069477 0.047374
v 0.413872 0.000629 0.014673
v 0.866141 0.013783 0.083978
v -0.413790 0.008279 0.014662
v 0.805354 0.023773 -0.081319
v -0.443449 0.009852 0.012507
v -0.805679 -0.066457 -0.047350
v 0.443468 0.003924 0.014913
v 0.797340 0.022667 0.093982
v -0.413813 0.009971 0.012301
v -0.797642 0.083386 0.043636
v 0.413833 0.003525 0.014909
v 0.443429 0.006809 0.014579
v -0.443472 0.011051 0.009861
v -0.797643 0.084873 0.041110
v 0.797278 0.025598 0.093958
v -0.413836 0.011170 0.009655
v 0.805417 0.020843 -0.081294
v 0.413795 0.006410 0.014576
v -0.805678 -0.067944 -0.044824
v -0.704964 -0.069166 -0.056998
v 0.704515 0.028487 -0.088605
v 0.443392 0.009574 0.013690
v -0.443495 0.011710 0.007032
v 0.413757 0.009175 0.013686
v -0.704964 -0.070653 -0.054472
v -0.413859 0.011829 0.006826
v 0.704577 0.025557 -0.088580
v -0.709040 0.080951 0.034109
v 0.708610 0.027679 0.086994
v 0.443358 0.012112 0.012277
v -0.443515 0.011805 0.004129
v -0.709041 0.082438 0.031583
v 0.708547 0.030610 0.086969
v -0.413879 0.011924 0.003923
v 0.413723 0.011713 0.012274
v -0.603497 -0.062429 -0.042483
v 0.443328 0.014327 0.010397
v -0.443533 0.011332 0.001262
v 0.603264 0.017329 -0.075360
v -0.602595 0.056452 0.030325
v 0.413694 0.013928 0.010393
v -0.413897 0.011451 0.001057
v 0.602390 0.016036 0.064039
v 0.602328 0.018966 0.064015
v -0.443548 0.010309 -0.001456
v -0.602596 0.057939 0.027799
v 0.443304 0.016131 0.008121
v -0.603498 -0.060942 -0.045010
v 0.603202 0.020260 -0.075385
v -0.413912 0.010428 -0.001662
v 0.413670 0.015732 0.008117
v -0.443559 0.008775 -0.003923
v 0.492020 0.005541 -0.019853
v -0.492025 -0.019665 -0.005871
v 0.443287 0.017457 0.005536
v -0.494372 0.015482 0.020983
v 0.494473 0.000646 0.024101
v 0.413652 0.017058 0.005533
v -0.413923 0.008894 -0.004129
v -0.443566 0.006789 -0.006043
v 0.494410 0.003577 0.024077
v 0.443276 0.018254 0.002743
v -0.494373 0.016969 0.018457
v -0.413930 0.006908 -0.006249
v 0.491958 0.008471 -0.019878
v 0.413642 0.017855 0.002739
v -0.492026 -0.018178 -0.008397
v 0.443274 0.018490 -0.000152
v -0.443568 0.004428 -0.007735
v 0.413639 0.018091 -0.000156
v -0.413932 0.004547 -0.007941
v 0.443278 0.018157 -0.003038
v -0.443566 0.001782 -0.008934
v 0.413644 0.017758 -0.003042
v -0.413930 0.001901 -0.009140
v 0.443291 0.017267 -0.005804
v -0.443559 -0.001047 -0.009594
v 0.413656 0.016868 -0.005807
v -0.413923 -0.000928 -0.009800
v 0.443310 0.015855 -0.008342
v -0.443548 -0.003951 -0.009689
v 0.413676 0.015456 -0.008346
v -0.413912 -0.003832 -0.009895
v -0.443533 -0.006817 -0.009216
v 0.443336 0.013975 -0.010556
v -0.413897 -0.006698 -0.009422
v 0.413701 0.013576 -0.010560
v -0.443515 -0.009536 -0.008193
v 0.443367 0.011699 -0.012361
v -0.413879 -0.009417 -0.008399
v 0.413732 0.011300 -0.012365
v -0.443495 -0.012002 -0.006659
v 0.443401 0.009115 -0.013688
v -0.413859 -0.011884 -0.006865
v 0.413767 0.008716 -0.013691
v -0.443472 -0.014123 -0.004673
v 0.443439 0.006321 -0.014484
v -0.413836 -0.014004 -0.004879
v 0.413805 0.005922 -0.014488
v 0.000005 -0.000249 -0.014816
v 0.000000 -0.012887 -0.007382
v 0.000024 -0.014086 -0.004736
v 0.000044 -0.003134 -0.014483
v 0.000046 -0.014746 -0.001907
v 0.000081 -0.005899 -0.013593
v 0.000115 -0.008438 -0.012181
v 0.000066 -0.014841 0.000996
v 0.000084 -0.014367 0.003862
v 0.000145 -0.010652 -0.010301
v 0.000169 -0.012456 -0.008025
v 0.000099 -0.013344 0.006581
v 0.000186 -0.013783 -0.005440
v 0.000110 -0.011810 0.009048
v 0.000197 -0.014579 -0.002647
v 0.000117 -0.009824 0.011168
v 0.000199 -0.014815 0.000249
v 0.000119 -0.007463 0.012860
v 0.000195 -0.014482 0.003134
v 0.000117 -0.004817 0.014059
v 0.000110 -0.001988 0.014718
v 0.000182 -0.013592 0.005900
v 0.000163 -0.012180 0.008438
v 0.000099 0.000915 0.014814
v 0.000084 0.003781 0.014340
v 0.000137 -0.010300 0.010653
v 0.000066 0.006500 0.013317
v 0.000071 -0.005440 0.013784
v 0.000046 0.008967 0.011783
v 0.000024 0.011087 0.009798
v 0.000034 -0.002646 0.014580
v -0.000005 0.000249 0.014816
v 0.000000 0.012779 0.007436
v -0.000044 0.003134 0.014483
v -0.000023 0.013978 0.004790
v -0.000081 0.005899 0.013593
v -0.000045 0.014638 0.001961
v -0.000115 0.008438 0.012181
v -0.000145 0.010652 0.010301
v -0.000169 0.012456 0.008025
v -0.000186 0.013782 0.005440
v -0.000197 0.014579 0.002647
v -0.000119 0.007355 -0.012806
v -0.000199 0.014815 -0.000249
v -0.000195 0.014482 -0.003134
v -0.000116 0.004709 -0.014005
v -0.000182 0.013592 -0.005900
v -0.000110 0.001880 -0.014664
v -0.000163 0.012180 -0.008438
v -0.000099 -0.001023 -0.014759
v -0.000137 0.010300 -0.010653
v -0.000084 -0.003889 -0.014286
v -0.000106 0.008024 -0.012458
v -0.000066 -0.006608 -0.013263
v -0.000071 0.005440 -0.013784
v -0.000045 -0.009075 -0.011729
v -0.000023 -0.011195 -0.009743
v -0.000034 0.002646 -0.014580
v 0.606538 0.014563 -0.014849
v -0.606710 -0.011999 -0.008921
v 0.606556 0.012624 -0.014532
v -0.606687 -0.012724 -0.007095
v -0.606665 -0.012928 -0.005055
v 0.606574 0.010769 -0.013657
v -0.606644 -0.012604 -0.002878
v 0.606590 0.009070 -0.012259
v -0.606626 -0.011763 -0.000649
v 0.606603 0.007591 -0.010391
v -0.606611 -0.010438 0.001547
v 0.606614 0.006389 -0.008125
v -0.606600 -0.008679 0.003625
v 0.606622 0.005512 -0.005548
v -0.606594 -0.006556 0.005506
v 0.606627 0.004991 -0.002759
v 0.606628 0.004848 0.000135
v -0.606591 -0.004148 0.007118
v 0.606625 0.005088 0.003022
v -0.606594 -0.001548 0.008397
v -0.606600 0.001143 0.009296
v 0.606618 0.005702 0.005792
v 0.606609 0.006666 0.008338
v -0.606611 0.003822 0.009780
v 0.606596 0.007942 0.010562
v -0.606626 0.006386 0.009829
v 0.606581 0.009483 0.012380
v -0.606644 0.008737 0.009443
v -0.606665 0.010784 0.008636
v 0.606564 0.011229 0.013720
v -0.606687 0.012449 0.007439
v 0.606546 0.013112 0.014532
v -0.606710 0.013668 0.005897
v 0.606527 0.015060 0.014784
v -0.606733 0.014393 0.004071
v 0.606509 0.016999 0.014466
v -0.606776 0.014273 -0.000146
v 0.606475 0.020554 0.012194
v -0.606794 0.013432 -0.002375
v 0.606461 0.022033 0.010326
v -0.606809 0.012107 -0.004571
v 0.606450 0.023234 0.008060
v 0.606442 0.024112 0.005483
v -0.606820 0.010349 -0.006649
v -0.606827 0.008225 -0.008530
v 0.606438 0.024632 0.002694
v 0.606437 0.024775 -0.000200
v -0.606829 0.005817 -0.010141
v 0.606440 0.024535 -0.003087
v -0.606827 0.003217 -0.011421
v -0.606820 0.000526 -0.012320
v 0.606446 0.023921 -0.005857
v 0.606456 0.022958 -0.008403
v -0.606809 -0.002153 -0.012803
v -0.606794 -0.004717 -0.012853
v 0.606469 0.021681 -0.010628
v 0.606519 0.016512 -0.014597
v -0.606733 -0.010780 -0.010462
v 0.680931 0.030900 -0.015097
v -0.681438 -0.004630 -0.021684
v -0.681354 -0.003401 -0.015132
v 0.680954 0.025914 -0.010672
v 0.680958 0.025062 -0.008412
v -0.681339 -0.001901 -0.013239
v 0.680960 0.024444 -0.005839
v -0.681328 -0.000013 -0.011386
v -0.681321 0.002191 -0.009643
v 0.680961 0.024083 -0.003053
v -0.681319 0.004626 -0.008079
v 0.680961 0.023994 -0.000160
v 0.680959 0.024180 0.002728
v -0.681321 0.007198 -0.006752
v -0.681328 0.009809 -0.005715
v 0.680956 0.024634 0.005501
v -0.681339 0.012358 -0.005006
v 0.680952 0.025338 0.008051
v -0.681354 0.014748 -0.004654
v 0.680947 0.026266 0.010281
v -0.681414 0.020092 -0.005799
v 0.680928 0.029997 0.014275
v -0.681438 0.021036 -0.006866
v 0.680921 0.031398 0.014536
v 0.680914 0.032789 0.014228
v -0.681461 0.021488 -0.008217
v 0.680908 0.034117 0.013362
v -0.681483 0.021429 -0.009801
v 0.680902 0.035331 0.011972
v -0.681504 0.020861 -0.011557
v 0.680898 0.036384 0.010112
v -0.681522 0.019807 -0.013417
v 0.680894 0.037236 0.007851
v -0.681537 0.018307 -0.015310
v 0.680892 0.037854 0.005279
v -0.681548 0.016419 -0.017164
v 0.680891 0.038215 0.002492
v -0.681554 0.014216 -0.018907
v -0.681557 0.011781 -0.020471
v 0.680891 0.038304 -0.000400
v 0.680893 0.038118 -0.003289
v -0.681554 0.009208 -0.021797
v 0.680896 0.037664 -0.006061
v -0.681548 0.006597 -0.022835
v -0.681537 0.004048 -0.023543
v 0.680900 0.036960 -0.008612
v -0.681522 0.001658 -0.023895
v 0.680905 0.036032 -0.010842
v 0.680911 0.034917 -0.012666
v -0.681504 -0.000480 -0.023878
v -0.681483 -0.002284 -0.023491
v 0.680918 0.033657 -0.014015
v 0.680924 0.032301 -0.014835
v -0.681461 -0.003686 -0.022750
v -0.775620 0.006372 -0.008438
v 0.439710 0.003376 -0.014721
v -0.775913 0.003693 -0.009830
v 0.438508 0.003262 -0.014710
v -0.775159 0.004076 -0.009834
v 0.442059 0.000521 -0.014387
v -0.776689 0.006590 -0.008012
v 0.443516 0.000650 -0.014400
v -0.774236 0.005378 -0.009381
v 0.438569 0.000474 -0.014388
v -0.774411 0.004735 -0.009685
v 0.438573 0.000320 -0.014338
v -0.774660 0.005940 -0.008950
v 0.440404 0.000371 -0.014346
v -0.785627 0.004965 -0.007777
v 0.438823 -0.000580 0.014235
v -0.786344 0.004541 -0.007932
v 0.443527 -0.000451 0.014255
v 0.438794 0.000965 0.014676
v -0.785188 0.004216 -0.008279
v -0.781366 0.003909 -0.008972
v 0.443485 0.002646 0.014808
v 0.441138 0.002555 0.014803
v -0.782566 0.005630 -0.007793
v 0.438766 0.002332 0.014787
v -0.603103 -0.010439 -0.010642
v 0.443474 0.003730 -0.014695
v -0.602915 0.014213 0.004456
v 0.679060 0.026512 -0.012526
v -0.568522 -0.012829 -0.007462
v 0.680952 0.026519 -0.011742
v -0.596576 -0.010988 -0.010102
v 0.538800 0.008091 0.014592
v 0.561134 0.008967 0.014350
v -0.579902 0.013041 0.006983
v -0.567854 -0.012907 -0.007348
v 0.566191 0.010121 0.014568
v -0.566277 0.011387 0.009277
v 0.490081 0.004480 0.014635
v -0.554020 -0.014108 -0.004699
v 0.493881 0.004633 0.014595
v -0.551934 0.009194 0.011391
v -0.550793 -0.014249 -0.003988
v 0.551915 0.006873 0.013774
v -0.548117 0.008551 0.011914
v 0.530338 0.005153 0.013795
v -0.561196 0.010663 0.010062
v 0.469054 0.000268 0.013855
v -0.706743 -0.003022 -0.018351
v 0.512956 0.003768 0.013812
v 0.522913 0.004789 0.013900
v -0.684006 0.019738 -0.005798
v 0.550749 0.007975 -0.014240
v -0.681413 0.019980 -0.005740
v 0.553961 0.008726 -0.014485
v -0.680996 0.020040 -0.005718
v -0.680951 0.020045 -0.005717
v 0.550227 0.007966 -0.014254
v -0.707287 0.017214 -0.006527
v 0.532219 0.007115 -0.014466
v -0.681415 -0.005078 -0.020344
v 0.605199 0.020074 -0.012444
v -0.675146 -0.005250 -0.020609
v 0.605339 0.020097 -0.012432
v -0.668381 -0.004927 -0.020600
v 0.606483 0.020286 -0.012273
v -0.674716 0.020374 -0.005717
v 0.579752 0.013232 0.014805
v 0.570340 0.012589 0.014812
v -0.675425 0.020346 -0.005715
v 0.557651 0.009905 0.014629
v -0.663202 0.019708 -0.006408
v -0.661411 -0.004119 -0.020313
v 0.547945 0.008862 0.014596
v -0.660986 0.019555 -0.006555
v 0.547422 0.008852 0.014600
v -0.666639 -0.004763 -0.020550
v 0.593101 0.017632 -0.013777
v 0.594351 0.017896 -0.013679
v -0.667945 0.020205 -0.005994
v -0.658874 -0.003732 -0.020155
v 0.602809 0.019677 -0.012652
v -0.655459 -0.003043 -0.019844
v 0.604444 0.016870 0.014468
v 0.584744 0.015639 0.014482
v -0.656971 0.018805 -0.007097
v 0.602701 0.016495 0.014509
v -0.656272 0.018717 -0.007167
v -0.706784 -0.002932 -0.014903
v 0.596373 0.015878 -0.014590
v -0.700193 -0.003272 -0.015276
v 0.579920 0.014849 -0.014579
v -0.704048 0.014382 -0.004871
v -0.707244 0.014146 -0.004925
v 0.582667 0.015430 -0.014464
v -0.679273 -0.004693 -0.016658
v 0.606509 0.017541 -0.014153
v -0.679473 -0.004662 -0.016634
v 0.602882 0.016763 -0.014397
v -0.681364 -0.004007 -0.016202
v 0.596374 0.018107 0.013653
v 0.597481 0.018341 0.013597
v -0.679290 0.016594 -0.004268
v 0.606506 0.017314 0.014318
v -0.681362 0.015799 -0.004663
v -0.679118 0.016640 -0.004246
v 0.548115 0.006012 0.013491
v -0.674239 -0.005779 -0.017438
v 0.547590 0.006001 0.013507
v -0.673408 -0.005845 -0.017503
v 0.479658 0.000571 0.013566
v -0.674551 0.017780 -0.003731
v 0.493887 0.001815 0.013609
v -0.673893 0.017897 -0.003684
v 0.492317 0.004947 -0.014521
v -0.663360 0.018960 -0.003406
v 0.496882 0.005422 -0.014541
v -0.661674 -0.006579 -0.018309
v 0.567730 0.011913 -0.014818
v -0.661276 0.019048 -0.003422
v -0.667900 0.018710 -0.003405
v 0.519685 0.008631 -0.014780
v -0.655393 -0.006275 -0.018335
v 0.539409 0.009978 -0.014796
v -0.656334 0.018930 -0.003650
v 0.568394 0.012065 -0.014810
v 0.550737 0.010942 -0.014789
v -0.669212 0.018572 -0.003443
v 0.492249 0.007891 -0.014666
v -0.668279 -0.006425 -0.018006
v 0.550213 0.010932 -0.014787
v -0.550844 -0.013193 -0.006815
v -0.548009 0.010966 0.010035
v 0.484285 0.007578 -0.014641
v 0.572501 0.013281 -0.014716
v -0.550321 -0.013190 -0.006814
v -0.547485 0.010970 0.010036
v 0.606480 0.020081 0.012583
v 0.602648 0.019440 0.012933
v -0.596625 0.014377 0.002517
v -0.597737 0.014438 0.002307
v 0.791306 0.024011 -0.000715
v 0.791476 0.023973 -0.000419
v -0.594598 -0.009146 -0.011401
v 0.666158 0.029542 -0.014627
v -0.593343 -0.009352 -0.011249
v -0.603092 -0.007443 -0.012244
v 0.667901 0.029537 -0.014794
v -0.602926 0.014376 0.001119
v 0.650915 0.025933 -0.014739
v -0.580105 -0.011325 -0.009518
v 0.625210 0.021561 -0.014191
v -0.582864 -0.010959 -0.009906
v 0.660929 0.029558 -0.013953
v 0.660496 0.029930 0.013425
v -0.584944 0.013947 0.004844
v -0.557734 0.011424 0.009337
v 0.662712 0.029930 0.013632
v 0.667456 0.029933 0.014271
v -0.572654 -0.012168 -0.008381
v -0.570479 0.012821 0.007364
v 0.644854 0.025136 0.014344
v -0.440310 -0.017031 0.000443
v 0.635366 0.023519 0.014116
v 0.674667 0.029525 -0.015076
v -0.441967 -0.017008 0.000324
v 0.661256 0.026580 -0.015031
v -0.443427 -0.016968 0.000234
v 0.654972 0.026623 -0.014784
v -0.479559 0.006573 0.015355
v 0.655780 0.029922 0.012393
v -0.492310 -0.015402 -0.002613
v -0.493812 0.007092 0.014573
v 0.656480 0.029923 0.012504
v -0.468952 0.006782 0.015568
v 0.619370 0.022224 0.012886
v 0.678699 0.026841 0.012114
v -0.438478 -0.017030 0.000457
v -0.438709 0.007006 0.015934
v 0.678870 0.026839 0.012063
v -0.443414 0.007037 0.015919
v 0.680944 0.026814 0.011178
v 0.673471 0.026893 0.013481
v -0.550271 -0.014259 -0.003997
v 0.674130 0.026887 0.013356
v -0.547592 0.008565 0.011922
v 0.667863 0.026541 -0.014743
v -0.438713 0.008179 0.014835
v 0.680938 0.029521 -0.014791
v -0.438476 -0.015835 -0.002257
v 0.680466 0.029892 0.014276
v -0.438714 0.008978 0.013720
v 0.680511 0.029892 0.014272
v -0.438478 -0.016994 0.000300
v -0.492304 -0.014011 -0.005213
v 0.667476 0.026943 0.014321
v 0.668788 0.026933 0.014184
v -0.490064 0.009385 0.012746
v -0.493866 0.009387 0.012664
v 0.680928 0.029889 0.014209
v -0.443439 0.009105 0.013549
v 0.672994 0.026519 -0.013988
v -0.441091 0.009080 0.013581
v 0.673825 0.026515 -0.013898
v -0.484335 -0.014062 -0.005079
v 0.611083 0.021053 -0.012459
v 0.674229 0.029928 0.014558
v -0.443452 -0.015637 -0.002559
v 0.674938 0.029927 0.014536
v -0.439680 -0.015799 -0.002338
v -0.791849 0.003423 -0.005995
v 0.660849 0.026990 0.014603
v -0.791763 0.003690 -0.005859
v 0.662934 0.026975 0.014535
v 0.678860 0.026512 -0.012565
v -0.791808 0.003172 -0.006157
v -0.791639 0.002940 -0.006345
v 0.658391 0.029567 -0.013540
v 0.628009 0.023876 -0.013032
v -0.791549 0.003972 -0.005751
v -0.791340 0.002730 -0.006557
v 0.654975 0.029581 -0.012789
v -0.791295 0.002711 -0.006581
v 0.655906 0.027018 0.014384
v -0.790946 0.004427 -0.005652
v 0.752118 0.029568 0.003249
v 0.748437 0.029579 0.004509
v -0.791202 0.004266 -0.005675
v 0.791517 0.023964 -0.000120
v -0.788640 0.005039 -0.005616
v -0.790186 0.002506 -0.006848
v 0.754542 0.029556 0.002057
v 0.782180 0.026442 0.000848
v -0.788346 0.002268 -0.007232
v 0.776288 0.026997 0.001557
v -0.786029 0.005599 -0.005651
v 0.775214 0.027226 0.001152
v -0.790383 0.004601 -0.005629
v 0.791431 0.023983 0.000179
v -0.781996 0.006361 -0.005764
v -0.785583 0.002007 -0.007755
v 0.785248 0.026151 0.000285
v 0.774249 0.027423 0.000518
v -0.781290 0.001706 -0.008507
v 0.755911 0.029542 0.000906
v -0.775366 0.007490 -0.006019
v 0.791216 0.024031 0.000476
v -0.764798 0.000964 -0.011162
v 0.785966 0.026081 -0.000158
v -0.774147 0.001331 -0.009687
v -0.765748 0.008998 -0.006463
v 0.773824 0.027494 -0.000186
v 0.756334 0.029528 -0.000226
v -0.759175 0.009825 -0.006165
v -0.747706 0.011042 -0.005776
v 0.790867 0.024109 0.000768
v -0.758559 0.000329 -0.011704
v 0.784807 0.026187 -0.000615
v 0.774001 0.027428 -0.000893
v -0.746754 -0.000641 -0.012597
v 0.755843 0.029512 -0.001360
v -0.730816 0.012507 -0.005338
v 0.790045 0.024225 0.001078
v -0.728735 -0.001828 -0.013753
v -0.756302 0.005608 -0.012047
v 0.790610 0.024167 0.000917
v -0.756793 0.006583 -0.011468
v 0.780978 0.026541 -0.001236
v -0.752351 0.003609 -0.013302
v 0.754400 0.029495 -0.002517
v -0.752579 0.009630 -0.009792
v 0.774753 0.027233 -0.001536
v -0.754859 0.004623 -0.012654
v 0.788298 0.024402 0.001461
v -0.755002 0.008574 -0.010350
v 0.703637 0.026751 0.009855
v -0.756371 0.007565 -0.010906
v 0.775512 0.027048 -0.001862
v -0.743158 0.001407 -0.014796
v 0.751892 0.029475 -0.003720
v -0.743629 0.011985 -0.008627
v 0.706833 0.026744 0.009626
v -0.748566 0.002545 -0.014009
v 0.785680 0.024664 0.001923
v -0.748899 0.010757 -0.009221
v 0.730411 0.026762 0.008007
v -0.736234 0.013355 -0.008001
v 0.706274 0.029413 -0.012003
v -0.735575 0.000164 -0.015695
v 0.746356 0.026564 -0.007001
v -0.725605 0.014958 -0.007334
v 0.707367 0.029412 -0.011884
v 0.758164 0.026552 -0.005711
v -0.724311 -0.001259 -0.016833
v 0.780933 0.025008 -0.002885
v -0.707835 -0.002933 -0.018268
v 0.773774 0.025673 -0.003814
v -0.709746 0.016954 -0.006610
v -0.628377 -0.005888 -0.015575
v 0.748106 0.029453 -0.004996
v 0.683523 0.029870 0.013972
v -0.619704 0.015583 -0.000984
v -0.611395 -0.006661 -0.013172
v 0.781638 0.025065 0.002518
v -0.605490 -0.007087 -0.012433
v 0.747304 0.026747 0.006526
v -0.606771 0.014363 0.000460
v 0.728333 0.026558 -0.008614
v -0.605631 -0.007066 -0.012444
v 0.785236 0.024610 -0.002240
v -0.606778 -0.006846 -0.012503
v 0.742698 0.029426 -0.006377
v 0.709272 0.029687 0.011166
v -0.635724 0.017127 -0.001167
v 0.706813 0.029697 0.011433
v -0.651322 -0.006547 -0.017795
v 0.774992 0.025722 0.003356
v -0.645245 0.018049 -0.002261
v 0.758778 0.026701 0.005283
v -0.606746 -0.009870 -0.011117
v 0.788005 0.024355 -0.001747
v -0.606737 0.014428 0.003725
v 0.699786 0.026508 -0.010635
v 0.706378 0.026505 -0.010152
v -0.604667 0.014351 0.004145
v -0.538847 0.010667 0.010526
v 0.735114 0.029394 -0.007905
v -0.539497 -0.013570 -0.006200
v 0.725137 0.029622 0.009083
v 0.765352 0.026672 0.004420
v 0.789848 0.024188 -0.001345
v -0.519750 -0.014031 -0.005401
v 0.723847 0.029397 -0.009710
v -0.496883 -0.015225 -0.002947
v 0.735768 0.029597 0.007365
v -0.532250 -0.014680 -0.003708
v 0.791006 0.024078 -0.001004
v 0.790961 0.024088 -0.001033
v -0.522895 0.008551 0.012708
v -0.530327 0.008566 0.012478
v 0.764404 0.026548 -0.004887
v -0.512916 0.008060 0.013355
v 0.743165 0.029589 0.005868
v -0.000189 0.014021 0.004604
v -0.000172 0.012705 0.007541
v -0.000175 0.012935 0.007092
v -0.000188 0.013951 0.004851
v -0.000155 0.011432 0.009316
v -0.000119 0.008734 0.011929
v -0.000130 0.009570 0.011220
v -0.000149 0.010943 0.009934
v -0.000101 0.007407 0.012755
v -0.000047 0.003354 0.014412
v -0.000069 0.005007 0.013881
v -0.000085 0.006169 0.013443
v -0.000035 0.002437 0.014564
v 0.000032 -0.002552 0.014588
v 0.000001 -0.000232 0.014777
v -0.000007 0.000406 0.014798
v 0.000037 -0.002922 0.014502
v 0.000071 -0.005402 0.013795
v 0.000073 -0.005547 0.013729
v 0.000118 -0.008841 0.011810
v -0.000156 0.011702 -0.008993
v -0.000117 0.008812 -0.011761
v -0.000129 0.009716 -0.011113
v -0.000191 0.014259 -0.003807
v -0.000177 0.013236 -0.006526
v -0.000197 0.014638 0.001923
v -0.000198 0.014732 -0.000940
v -0.000197 0.014634 0.001976
v 0.000092 0.002407 0.014567
v 0.000101 0.000416 0.014797
v 0.000119 -0.008024 0.012458
v 0.000001 0.012711 0.007532
v -0.000002 0.012927 0.007111
v 0.000077 0.004975 0.013891
v 0.000087 0.003366 0.014409
v 0.000118 -0.005556 0.013724
v -0.000022 0.013954 0.004844
v -0.000024 0.014019 0.004617
v 0.000059 0.007377 0.012772
v 0.000069 0.006181 0.013437
v 0.000112 -0.002938 0.014497
v 0.000117 -0.005398 0.013796
v -0.000045 0.014635 0.001972
v -0.000045 0.014639 0.001928
v 0.000040 0.009546 0.011241
v 0.000048 0.008745 0.011922
v 0.000104 -0.000256 0.014775
v 0.000112 -0.002546 0.014588
v 0.000025 0.010951 0.009925
v 0.000019 0.011416 0.009339
vt 0.625000 0.500000
vt 0.625000 0.500000
vt 0.000000 1.000000
vt 1.000000 1.000000
vt 0.375000 0.500000
vt 0.375000 0.500000
vt 0.000000 1.000000
vt 1.000000 1.000000
vt 0.968750 0.500000
vt 0.968750 0.500000
vt 0.625000 0.750000
vt 0.625000 0.750000
vt 0.968750 1.000000
vt 0.968750 1.000000
vt 0.375000 0.750000
vt 0.375000 0.750000
vt 0.875000 0.500000
vt 0.625000 0.250000
vt 0.875000 0.500000
vt 0.625000 0.250000
vt 0.937500 0.500000
vt 0.937500 0.500000
vt 0.125000 0.500000
vt 0.375000 0.250000
vt 0.125000 0.500000
vt 0.375000 0.250000
vt 0.937500 1.000000
vt 0.937500 1.000000
vt 0.875000 0.750000
vt 0.625000 1.000000
vt 0.625000 0.000000
vt 0.906250 0.500000
vt 0.875000 0.750000
vt 0.625000 1.000000
vt 0.625000 0.000000
vt 0.906250 0.500000
vt 0.375000 0.000000
vt 0.375000 1.000000
vt 0.125000 0.750000
vt 0.906250 1.000000
vt 0.375000 0.000000
vt 0.375000 1.000000
vt 0.125000 0.750000
vt 0.906250 1.000000
vt 0.875000 0.500000
vt 0.625000 0.500000
vt 0.625000 0.500000
vt 0.875000 0.500000
vt 0.375000 0.500000
vt 0.875000 1.000000
vt 0.375000 0.500000
vt 0.875000 1.000000
vt 0.843750 0.500000
vt 0.843750 0.500000
vt 0.625000 0.750000
vt 0.625000 0.750000
vt 0.843750 1.000000
vt 0.375000 0.750000
vt 0.843750 1.000000
vt 0.375000 0.750000
vt 0.812500 0.500000
vt 0.625000 0.500000
vt 0.625000 0.500000
vt 0.812500 0.500000
vt 0.375000 0.500000
vt 0.375000 0.500000
vt 0.812500 1.000000
vt 0.812500 1.000000
vt 0.781250 0.500000
vt 0.781250 0.500000
vt 0.625000 0.750000
vt 0.625000 0.750000
vt 0.375000 0.750000
vt 0.375000 0.750000
vt 0.781250 1.000000
vt 0.781250 1.000000
vt 0.750000 0.500000
vt 0.750000 0.500000
vt 0.625000 0.500000
vt 0.625000 0.500000
vt 0.750000 1.000000
vt 0.375000 0.500000
vt 0.750000 1.000000
vt 0.375000 0.500000
vt 0.718750 0.500000
vt 0.625000 0.750000
vt 0.718750 0.500000
vt 0.625000 0.750000
vt 0.718750 1.000000
vt 0.375000 0.750000
vt 0.375000 0.750000
vt 0.718750 1.000000
vt 0.687500 0.500000
vt 0.625000 0.500000
vt 0.687500 0.500000
vt 0.625000 0.500000
vt 0.687500 1.000000
vt 0.375000 0.500000
vt 0.375000 0.500000
vt 0.687500 1.000000
vt 0.656250 0.500000
vt 0.625000 0.750000
vt 0.656250 0.500000
vt 0.625000 0.750000
vt 0.656250 1.000000
vt 0.375000 0.750000
vt 0.656250 1.000000
vt 0.375000 0.750000
vt 0.625000 0.500000
vt 0.250000 0.500000
vt 0.375000 0.375000
vt 0.625000 0.500000
vt 0.250000 0.500000
vt 0.375000 0.375000
vt 0.625000 1.000000
vt 0.750000 0.750000
vt 0.625000 0.875000
vt 0.750000 0.750000
vt 0.625000 0.875000
vt 0.625000 1.000000
vt 0.593750 0.500000
vt 0.375000 0.875000
vt 0.250000 0.750000
vt 0.593750 0.500000
vt 0.375000 0.875000
vt 0.250000 0.750000
vt 0.593750 1.000000
vt 0.593750 1.000000
vt 0.750000 0.500000
vt 0.625000 0.375000
vt 0.750000 0.500000
vt 0.625000 0.375000
vt 0.562500 0.500000
vt 0.375000 0.312500
vt 0.187500 0.500000
vt 0.562500 0.500000
vt 0.375000 0.312500
vt 0.187500 0.500000
vt 0.562500 1.000000
vt 0.562500 1.000000
vt 0.625000 0.937500
vt 0.812500 0.750000
vt 0.625000 0.937500
vt 0.812500 0.750000
vt 0.187500 0.750000
vt 0.375000 0.937500
vt 0.187500 0.750000
vt 0.375000 0.937500
vt 0.625000 0.312500
vt 0.812500 0.500000
vt 0.531250 1.000000
vt 0.625000 0.312500
vt 0.812500 0.500000
vt 0.531250 1.000000
vt 0.375000 0.812500
vt 0.312500 0.750000
vt 0.500000 0.500000
vt 0.375000 0.812500
vt 0.312500 0.750000
vt 0.500000 0.500000
vt 0.687500 0.500000
vt 0.625000 0.437500
vt 0.500000 1.000000
vt 0.687500 0.500000
vt 0.625000 0.437500
vt 0.500000 1.000000
vt 0.468750 0.500000
vt 0.468750 0.500000
vt 0.375000 0.437500
vt 0.312500 0.500000
vt 0.375000 0.437500
vt 0.312500 0.500000
vt 0.468750 1.000000
vt 0.687500 0.750000
vt 0.625000 0.812500
vt 0.468750 1.000000
vt 0.687500 0.750000
vt 0.625000 0.812500
vt 0.375000 0.750000
vt 0.375000 0.750000
vt 0.437500 0.500000
vt 0.437500 0.500000
vt 0.437500 1.000000
vt 0.625000 0.750000
vt 0.437500 1.000000
vt 0.625000 0.750000
vt 0.625000 0.500000
vt 0.625000 0.500000
vt 0.406250 0.500000
vt 0.406250 0.500000
vt 0.375000 0.500000
vt 0.375000 0.500000
vt 0.406250 1.000000
vt 0.406250 1.000000
vt 0.625000 0.750000
vt 0.375000 0.500000
vt 0.375000 0.500000
vt 0.625000 0.750000
vt 0.625000 0.500000
vt 0.375000 1.000000
vt 0.375000 1.000000
vt 0.625000 0.500000
vt 0.375000 0.500000
vt 0.343750 0.500000
vt 0.375000 0.500000
vt 0.343750 0.500000
vt 0.375000 0.750000
vt 0.375000 0.750000
vt 0.343750 1.000000
vt 0.343750 1.000000
vt 0.312500 0.500000
vt 0.625000 0.750000
vt 0.625000 0.750000
vt 0.312500 0.500000
vt 0.625000 0.500000
vt 0.625000 0.500000
vt 0.312500 1.000000
vt 0.312500 1.000000
vt 0.281250 0.500000
vt 0.375000 0.500000
vt 0.281250 0.500000
vt 0.375000 0.500000
vt 0.281250 1.000000
vt 0.375000 0.750000
vt 0.281250 1.000000
vt 0.375000 0.750000
vt 0.250000 0.500000
vt 0.250000 0.500000
vt 0.250000 1.000000
vt 0.250000 1.000000
vt 0.218750 0.500000
vt 0.218750 0.500000
vt 0.218750 1.000000
vt 0.218750 1.000000
vt 0.187500 0.500000
vt 0.187500 0.500000
vt 0.187500 1.000000
vt 0.187500 1.000000
vt 0.156250 0.500000
vt 0.156250 0.500000
vt 0.156250 1.000000
vt 0.156250 1.000000
vt 0.125000 0.500000
vt 0.125000 0.500000
vt 0.125000 1.000000
vt 0.125000 1.000000
vt 0.093750 0.500000
vt 0.093750 0.500000
vt 0.093750 1.000000
vt 0.093750 1.000000
vt 0.062500 0.500000
vt 0.062500 0.500000
vt 0.062500 1.000000
vt 0.062500 1.000000
vt 0.031250 0.500000
vt 0.031250 0.500000
vt 0.031250 1.000000
vt 0.031250 1.000000
vt 0.250000 0.490000
vt 1.000000 1.000000
vt 0.000000 1.000000
vt 0.250000 0.490000
vt 1.000000 1.000000
vt 0.000000 1.000000
vt 0.296822 0.485388
vt 0.968750 1.000000
vt 0.296822 0.485388
vt 0.968750 1.000000
vt 0.341844 0.471731
vt 0.937500 1.000000
vt 0.341844 0.471731
vt 0.937500 1.000000
vt 0.383337 0.449553
vt 0.906250 1.000000
vt 0.383337 0.449553
vt 0.906250 1.000000
vt 0.419706 0.419706
vt 0.875000 1.000000
vt 0.419706 0.419706
vt 0.875000 1.000000
vt 0.449553 0.383337
vt 0.843750 1.000000
vt 0.449553 0.383337
vt 0.843750 1.000000
vt 0.471731 0.341844
vt 0.812500 1.000000
vt 0.471731 0.341844
vt 0.812500 1.000000
vt 0.485388 0.296822
vt 0.781250 1.000000
vt 0.485388 0.296822
vt 0.781250 1.000000
vt 0.490000 0.250000
vt 0.750000 1.000000
vt 0.490000 0.250000
vt 0.750000 1.000000
vt 0.485388 0.203178
vt 0.718750 1.000000
vt 0.485388 0.203178
vt 0.718750 1.000000
vt 0.471731 0.158156
vt 0.687500 1.000000
vt 0.471731 0.158156
vt 0.687500 1.000000
vt 0.449553 0.116663
vt 0.656250 1.000000
vt 0.449553 0.116663
vt 0.656250 1.000000
vt 0.419706 0.080294
vt 0.625000 1.000000
vt 0.419706 0.080294
vt 0.625000 1.000000
vt 0.383337 0.050447
vt 0.593750 1.000000
vt 0.341844 0.028269
vt 0.562500 1.000000
vt 0.341844 0.028269
vt 0.562500 1.000000
vt 0.296822 0.014612
vt 0.531250 1.000000
vt 0.296822 0.014612
vt 0.531250 1.000000
vt 0.250000 0.010000
vt 0.500000 1.000000
vt 0.250000 0.010000
vt 0.500000 1.000000
vt 0.203178 0.014612
vt 0.468750 1.000000
vt 0.203178 0.014612
vt 0.468750 1.000000
vt 0.158156 0.028269
vt 0.437500 1.000000
vt 0.158156 0.028269
vt 0.437500 1.000000
vt 0.116663 0.050447
vt 0.406250 1.000000
vt 0.080294 0.080294
vt 0.375000 1.000000
vt 0.050447 0.116663
vt 0.343750 1.000000
vt 0.028269 0.158156
vt 0.312500 1.000000
vt 0.014612 0.203178
vt 0.281250 1.000000
vt 0.010000 0.250000
vt 0.250000 1.000000
vt 0.010000 0.250000
vt 0.250000 1.000000
vt 0.014612 0.296822
vt 0.218750 1.000000
vt 0.014612 0.296822
vt 0.218750 1.000000
vt 0.028269 0.341844
vt 0.187500 1.000000
vt 0.028269 0.341844
vt 0.187500 1.000000
vt 0.050447 0.383337
vt 0.156250 1.000000
vt 0.050447 0.383337
vt 0.156250 1.000000
vt 0.080294 0.419706
vt 0.125000 1.000000
vt 0.080294 0.419706
vt 0.125000 1.000000
vt 0.116663 0.449553
vt 0.093750 1.000000
vt 0.116663 0.449553
vt 0.093750 1.000000
vt 0.158156 0.471731
vt 0.062500 1.000000
vt 0.158156 0.471731
vt 0.062500 1.000000
vt 0.203178 0.485388
vt 0.031250 1.000000
vt 0.203178 0.485388
vt 0.031250 1.000000
vt 0.000000 0.500000
vt 1.000000 0.500000
vt 0.000000 0.500000
vt 1.000000 0.500000
vt 0.968750 0.500000
vt 0.968750 0.500000
vt 0.937500 0.500000
vt 0.937500 0.500000
vt 0.906250 0.500000
vt 0.906250 0.500000
vt 0.875000 0.500000
vt 0.875000 0.500000
vt 0.843750 0.500000
vt 0.843750 0.500000
vt 0.812500 0.500000
vt 0.812500 0.500000
vt 0.781250 0.500000
vt 0.781250 0.500000
vt 0.750000 0.500000
vt 0.750000 0.500000
vt 0.718750 0.500000
vt 0.718750 0.500000
vt 0.687500 0.500000
vt 0.687500 0.500000
vt 0.656250 0.500000
vt 0.656250 0.500000
vt 0.625000 0.500000
vt 0.625000 0.500000
vt 0.593750 0.500000
vt 0.593750 0.500000
vt 0.562500 0.500000
vt 0.562500 0.500000
vt 0.531250 0.500000
vt 0.531250 0.500000
vt 0.500000 0.500000
vt 0.500000 0.500000
vt 0.468750 0.500000
vt 0.468750 0.500000
vt 0.406250 0.500000
vt 0.406250 0.500000
vt 0.375000 0.500000
vt 0.375000 0.500000
vt 0.343750 0.500000
vt 0.343750 0.500000
vt 0.312500 0.500000
vt 0.312500 0.500000
vt 0.281250 0.500000
vt 0.281250 0.500000
vt 0.250000 0.500000
vt 0.250000 0.500000
vt 0.218750 0.500000
vt 0.218750 0.500000
vt 0.187500 0.500000
vt 0.187500 0.500000
vt 0.156250 0.500000
vt 0.156250 0.500000
vt 0.125000 0.500000
vt 0.125000 0.500000
vt 0.031250 0.500000
vt 0.031250 0.500000
vt 1.000000 0.500000
vt 0.000000 0.500000
vt 0.000000 0.500000
vt 1.000000 0.500000
vt 0.875000 0.500000
vt 0.875000 0.500000
vt 0.843750 0.500000
vt 0.843750 0.500000
vt 0.812500 0.500000
vt 0.812500 0.500000
vt 0.781250 0.500000
vt 0.781250 0.500000
vt 0.750000 0.500000
vt 0.750000 0.500000
vt 0.718750 0.500000
vt 0.718750 0.500000
vt 0.687500 0.500000
vt 0.687500 0.500000
vt 0.656250 0.500000
vt 0.656250 0.500000
vt 0.625000 0.500000
vt 0.625000 0.500000
vt 0.531250 0.500000
vt 0.531250 0.500000
vt 0.500000 0.500000
vt 0.500000 0.500000
vt 0.468750 0.500000
vt 0.468750 0.500000
vt 0.437500 0.500000
vt 0.437500 0.500000
vt 0.406250 0.500000
vt 0.406250 0.500000
vt 0.375000 0.500000
vt 0.375000 0.500000
vt 0.343750 0.500000
vt 0.343750 0.500000
vt 0.312500 0.500000
vt 0.312500 0.500000
vt 0.281250 0.500000
vt 0.281250 0.500000
vt 0.250000 0.500000
vt 0.250000 0.500000
vt 0.218750 0.500000
vt 0.218750 0.500000
vt 0.187500 0.500000
vt 0.187500 0.500000
vt 0.156250 0.500000
vt 0.156250 0.500000
vt 0.125000 0.500000
vt 0.125000 0.500000
vt 0.093750 0.500000
vt 0.093750 0.500000
vt 0.062500 0.500000
vt 0.062500 0.500000
vt 0.031250 0.500000
vt 0.031250 0.500000
vt 0.336404 0.500000
vt 0.312500 0.500000
vt 0.357300 0.627602
vt 1.000000 0.563582
vt 0.000000 0.563582
vt 0.375000 0.741953
vt 0.183051 0.500000
vt 0.356472 0.631908
vt 0.998944 0.583886
vt 0.375000 0.742431
vt 0.187500 0.500000
vt 0.357801 0.631305
vt 0.211287 0.500000
vt 0.968750 0.524602
vt 0.625000 0.738289
vt 0.342168 0.500000
vt 0.355485 0.627232
vt 0.969937 0.500000
vt 0.625000 0.737677
vt 0.359544 0.629228
vt 0.273552 0.500000
vt 0.250000 0.500000
vt 0.968750 0.583480
vt 0.612005 0.740105
vt 0.359159 0.630257
vt 0.242347 0.500000
vt 0.218750 0.500000
vt 0.967010 0.583453
vt 0.625000 0.739729
vt 0.281250 0.500000
vt 0.358893 0.628316
vt 0.304910 0.500000
vt 0.967307 0.552551
vt 0.625000 0.738757
vt 0.340215 0.630648
vt 0.307697 0.500000
vt 0.281250 0.500000
vt 0.548540 0.579378
vt 0.625000 0.517153
vt 0.250000 0.500000
vt 0.338988 0.631404
vt 0.276629 0.500000
vt 0.547799 0.500000
vt 0.625000 0.518184
vt 0.531250 0.579517
vt 0.491953 0.513618
vt 0.218750 0.500000
vt 0.340930 0.631839
vt 0.245085 0.500000
vt 0.187500 0.500000
vt 0.347349 0.632019
vt 0.212864 0.500000
vt 0.513788 0.500000
vt 0.375000 0.516694
vt 0.514427 0.539608
vt 0.375000 0.515580
vt 0.338169 0.500000
vt 0.345436 0.629298
vt 0.312500 0.500000
vt 0.516492 0.579679
vt 0.375000 0.512660
vt 0.625000 0.640669
vt 0.039108 0.500000
vt 0.003277 0.500000
vt 0.375000 0.739904
vt 0.625000 0.588827
vt 0.472986 0.500000
vt 0.906250 0.500000
vt 0.625000 0.639127
vt 0.625000 0.649796
vt 0.892963 0.500000
vt 0.625000 0.638151
vt 0.625000 0.642289
vt 0.031250 0.500000
vt 0.531250 0.500000
vt 0.375000 0.564544
vt 0.542313 0.500000
vt 0.625000 0.574455
vt 0.625000 0.581604
vt 0.500000 0.500000
vt 0.000000 0.500000
vt 0.625000 0.649987
vt 1.000000 0.500000
vt 0.531250 0.500000
vt 0.625000 0.576051
vt 0.625000 0.576246
vt 0.531250 0.500000
vt 0.531250 0.500000
vt 0.375000 0.550943
vt 0.625000 0.652001
vt 0.968750 0.500000
vt 0.532838 0.500000
vt 0.375000 0.553930
vt 0.625000 0.572142
vt 0.562500 0.500000
vt 0.625000 0.651743
vt 0.961328 0.500000
vt 0.562500 0.500000
vt 0.625000 0.572264
vt 0.625000 0.571610
vt 0.570920 0.500000
vt 0.562500 0.500000
vt 0.625000 0.567601
vt 0.625000 0.574477
vt 0.542592 0.500000
vt 0.562500 0.500000
vt 0.625000 0.531634
vt 0.375000 0.640928
vt 0.998647 0.500000
vt 0.562500 0.500000
vt 0.625000 0.562932
vt 0.559387 0.500000
vt 0.625000 0.566201
vt 0.531908 0.500000
vt 0.375000 0.600344
vt 0.531250 0.500000
vt 0.961187 0.500000
vt 0.625000 0.651743
vt 0.533746 0.500000
vt 0.375000 0.599587
vt 0.968750 0.500000
vt 0.625000 0.651616
vt 0.375000 0.599430
vt 0.531484 0.500000
vt 0.375000 0.599416
vt 0.531250 0.500000
vt 0.961635 0.500000
vt 0.625000 0.651832
vt 0.375000 0.607556
vt 0.509664 0.500000
vt 0.968750 0.500000
vt 0.625000 0.669445
vt 0.969004 0.500000
vt 0.375000 0.642466
vt 0.093750 0.500000
vt 0.375000 0.637094
vt 1.000000 0.500000
vt 0.375000 0.642307
vt 0.000000 0.500000
vt 0.094017 0.500000
vt 0.375000 0.637070
vt 0.375000 0.641256
vt 0.031250 0.500000
vt 0.096706 0.500000
vt 0.375000 0.636775
vt 0.375000 0.598018
vt 0.500000 0.500000
vt 0.500000 0.500000
vt 0.625000 0.581335
vt 0.500000 0.500000
vt 0.375000 0.575321
vt 0.375000 0.598163
vt 0.503385 0.500000
vt 0.525407 0.500000
vt 0.375000 0.570670
vt 0.375000 0.597646
vt 0.447021 0.500000
vt 0.375000 0.639323
vt 0.062500 0.500000
vt 0.529971 0.500000
vt 0.375000 0.568347
vt 0.375000 0.597630
vt 0.437500 0.500000
vt 0.529580 0.500000
vt 0.375000 0.568384
vt 0.375000 0.640841
vt 0.039059 0.500000
vt 0.062500 0.500000
vt 0.375000 0.641550
vt 0.065506 0.500000
vt 0.375000 0.641085
vt 0.375000 0.597399
vt 0.468750 0.500000
vt 0.375000 0.638448
vt 0.073670 0.500000
vt 0.088909 0.500000
vt 0.375000 0.637495
vt 0.375000 0.636963
vt 0.089544 0.500000
vt 0.468750 0.500000
vt 0.625000 0.589120
vt 0.468750 0.500000
vt 0.375000 0.581941
vt 0.375000 0.598448
vt 0.418329 0.500000
vt 0.472982 0.500000
vt 0.625000 0.588827
vt 0.375000 0.598517
vt 0.415317 0.500000
vt 0.625000 0.638326
vt 0.916763 0.500000
vt 0.031250 0.500000
vt 0.625000 0.642242
vt 0.625000 0.638313
vt 0.911026 0.500000
vt 0.906250 0.500000
vt 0.031250 0.500000
vt 0.375000 0.646394
vt 0.625000 0.609379
vt 0.599504 0.500000
vt 0.593750 0.500000
vt 0.625000 0.610165
vt 0.591725 0.500000
vt 0.037357 0.500000
vt 0.375000 0.645447
vt 0.625000 0.639006
vt 0.907362 0.500000
vt 0.048332 0.500000
vt 0.625000 0.640148
vt 0.625000 0.638968
vt 0.906250 0.500000
vt 0.039073 0.500000
vt 0.625000 0.640669
vt 0.625000 0.637995
vt 0.892963 0.500000
vt 0.440181 0.500000
vt 0.375000 0.588066
vt 0.437500 0.500000
vt 0.375000 0.588575
vt 0.625000 0.602480
vt 0.594770 0.500000
vt 0.463439 0.500000
vt 0.625000 0.589646
vt 0.625000 0.604105
vt 0.609638 0.500000
vt 0.625000 0.602378
vt 0.593750 0.500000
vt 0.570495 0.500000
vt 0.625000 0.571610
vt 0.625000 0.640503
vt 0.937500 0.500000
vt 0.570046 0.500000
vt 0.625000 0.571612
vt 0.625000 0.640559
vt 0.941841 0.500000
vt 0.569429 0.500000
vt 0.625000 0.538950
vt 0.625000 0.599829
vt 0.566030 0.500000
vt 0.568157 0.500000
vt 0.625000 0.559680
vt 0.625000 0.599541
vt 0.562500 0.500000
vt 0.978205 0.500000
vt 0.625000 0.719675
vt 0.625000 0.596337
vt 0.509595 0.500000
vt 0.979961 0.500000
vt 0.625000 0.711321
vt 0.625000 0.641024
vt 0.000000 0.500000
vt 1.000000 0.500000
vt 1.000000 0.500000
vt 0.000000 0.500000
vt 0.625000 0.648776
vt 0.625000 0.595918
vt 0.500000 0.500000
vt 0.625000 0.597355
vt 0.531250 0.500000
vt 0.000000 0.500000
vt 0.625000 0.640047
vt 0.027898 0.500000
vt 0.000000 0.500000
vt 0.375000 0.666634
vt 0.625000 0.595515
vt 0.477915 0.500000
vt 0.001536 0.500000
vt 0.625000 0.648574
vt 0.002608 0.500000
vt 0.375000 0.653259
vt 0.625000 0.597764
vt 0.537735 0.500000
vt 0.013535 0.500000
vt 0.375000 0.720360
vt 0.625000 0.641209
vt 0.968750 0.500000
vt 0.002958 0.500000
vt 0.375000 0.653301
vt 0.375000 0.653259
vt 0.002616 0.500000
vt 0.375000 0.568347
vt 0.529973 0.500000
vt 0.016013 0.500000
vt 0.375000 0.722728
vt 0.015143 0.500000
vt 0.375000 0.648619
vt 0.375000 0.653301
vt 0.002966 0.500000
vt 0.375000 0.568384
vt 0.529583 0.500000
vt 0.414944 0.500000
vt 0.375000 0.592626
vt 0.422825 0.500000
vt 0.375000 0.591611
vt 0.375000 0.589009
vt 0.440290 0.500000
vt 0.375000 0.589370
vt 0.437500 0.500000
vt 0.812500 0.500000
vt 0.840481 0.500000
vt 0.664657 0.632595
vt 0.809273 0.500000
vt 0.781250 0.500000
vt 0.665046 0.632220
vt 0.375000 0.640900
vt 0.065802 0.500000
vt 0.038821 0.500000
vt 0.375000 0.640795
vt 0.375000 0.641345
vt 0.062500 0.500000
vt 0.375000 0.637495
vt 0.088935 0.500000
vt 0.031250 0.500000
vt 0.375000 0.641204
vt 0.375000 0.591611
vt 0.422860 0.500000
vt 0.031250 0.500000
vt 0.625000 0.640069
vt 0.375000 0.646111
vt 0.031250 0.500000
vt 0.050258 0.500000
vt 0.625000 0.639762
vt 0.375000 0.645158
vt 0.037566 0.500000
vt 0.062500 0.500000
vt 0.375000 0.639295
vt 0.437500 0.500000
vt 0.375000 0.597608
vt 0.375000 0.583944
vt 0.468750 0.500000
vt 0.375000 0.571973
vt 0.525417 0.500000
vt 0.446729 0.500000
vt 0.375000 0.597610
vt 0.468750 0.500000
vt 0.375000 0.597323
vt 0.375000 0.648375
vt 0.015165 0.500000
vt 0.375000 0.577331
vt 0.500000 0.500000
vt 0.468750 0.500000
vt 0.625000 0.594357
vt 0.625000 0.739238
vt 0.967308 0.552553
vt 0.460860 0.500000
vt 0.625000 0.593661
vt 1.000000 0.500000
vt 0.000000 0.500000
vt 0.375000 0.642239
vt 0.625000 0.738763
vt 0.968750 0.524612
vt 0.000000 0.500000
vt 1.000000 0.500000
vt 0.625000 0.641062
vt 0.625000 0.738123
vt 0.969938 0.500000
vt 0.027889 0.500000
vt 0.625000 0.640047
vt 0.625000 0.552287
vt 0.569533 0.500000
vt 0.414891 0.500000
vt 0.375000 0.598517
vt 0.625000 0.719675
vt 0.978218 0.500000
vt 0.625000 0.559679
vt 0.568281 0.500000
vt 0.417749 0.500000
vt 0.375000 0.598445
vt 0.625000 0.543468
vt 0.562500 0.500000
vt 0.423049 0.500000
vt 0.375000 0.593429
vt 0.593750 0.500000
vt 0.625000 0.602579
vt 0.625000 0.739729
vt 0.967011 0.583454
vt 0.625000 0.517153
vt 0.548539 0.579379
vt 0.594714 0.500000
vt 0.625000 0.602682
vt 0.625000 0.520419
vt 0.547799 0.500000
vt 0.609638 0.500000
vt 0.625000 0.604318
vt 0.562500 0.500000
vt 0.625000 0.599713
vt 0.625000 0.651832
vt 0.961769 0.500000
vt 0.565846 0.500000
vt 0.625000 0.600005
vt 0.625000 0.571612
vt 0.570444 0.500000
vt 0.968750 0.500000
vt 0.625000 0.641298
vt 0.491952 0.513618
vt 0.531250 0.579518
vt 0.969003 0.500000
vt 0.375000 0.642382
vt 0.375000 0.742431
vt 0.998944 0.583887
vt 0.531250 0.500000
vt 0.375000 0.599271
vt 0.375000 0.512660
vt 0.516492 0.579680
vt 0.531475 0.500000
vt 0.375000 0.599285
vt 0.612003 0.740105
vt 0.968750 0.583481
vt 0.375000 0.720360
vt 0.013550 0.500000
vt 0.531250 0.500000
vt 0.625000 0.597485
vt 0.537549 0.500000
vt 0.625000 0.597903
vt 0.375000 0.552121
vt 0.531250 0.500000
vt 0.532852 0.500000
vt 0.375000 0.553930
vt 0.533747 0.500000
vt 0.375000 0.599444
vt 0.375000 0.516303
vt 0.513788 0.500000
vt 0.941682 0.500000
vt 0.625000 0.640693
vt 0.375000 0.514263
vt 0.514427 0.539607
vt 0.937500 0.500000
vt 0.625000 0.640644
vt 0.375000 0.721914
vt 0.016027 0.500000
vt 0.093750 0.500000
vt 0.375000 0.637049
vt 0.500000 0.500000
vt 0.375000 0.597868
vt 0.375000 0.740154
vt 0.003277 0.500000
vt 0.503370 0.500000
vt 0.375000 0.598004
vt 0.375000 0.742213
vt 1.000000 0.563590
vt 0.000000 0.563590
vt 0.778034 0.500000
vt 0.750000 0.500000
vt 0.669991 0.632319
vt 0.500000 0.500000
vt 0.625000 0.595983
vt 0.718750 0.500000
vt 0.669846 0.631880
vt 0.746762 0.500000
vt 0.509562 0.500000
vt 0.625000 0.596425
vt 0.907287 0.500000
vt 0.625000 0.639165
vt 0.809273 0.500000
vt 0.669916 0.632733
vt 0.781250 0.500000
vt 0.840481 0.500000
vt 0.669622 0.633120
vt 0.812500 0.500000
vt 0.073143 0.500000
vt 0.375000 0.638431
vt 0.082539 0.500000
vt 0.375000 0.637794
vt 0.687500 0.500000
vt 0.669478 0.631419
vt 0.715458 0.500000
vt 0.669103 0.633472
vt 0.871654 0.500000
vt 0.843750 0.500000
vt 0.089412 0.500000
vt 0.375000 0.636963
vt 0.669026 0.633505
vt 0.871997 0.500000
vt 0.477879 0.500000
vt 0.625000 0.595515
vt 0.668435 0.630683
vt 0.654400 0.500000
vt 0.361801 0.500000
vt 0.343750 0.500000
vt 0.375000 0.622015
vt 0.375000 0.500000
vt 0.392117 0.500000
vt 0.375000 0.620034
vt 0.668880 0.630942
vt 0.684120 0.500000
vt 0.656250 0.500000
vt 0.778034 0.500000
vt 0.750000 0.500000
vt 0.665154 0.631810
vt 0.664500 0.629495
vt 0.620968 0.500000
vt 0.593750 0.500000
vt 0.667153 0.633744
vt 0.902611 0.500000
vt 0.875000 0.500000
vt 0.331165 0.500000
vt 0.312500 0.500000
vt 0.375000 0.623824
vt 0.338169 0.500000
vt 0.312500 0.500000
vt 0.341152 0.629733
vt 0.664057 0.633978
vt 0.933394 0.500000
vt 0.906250 0.500000
vt 0.342169 0.500000
vt 0.349863 0.627803
vt 0.660030 0.628369
vt 0.589055 0.500000
vt 0.562500 0.500000
vt 0.336404 0.500000
vt 0.312500 0.500000
vt 0.352183 0.628124
vt 0.667475 0.630352
vt 0.652661 0.500000
vt 0.625000 0.500000
vt 0.746762 0.500000
vt 0.718750 0.500000
vt 0.664981 0.631369
vt 0.556781 0.500000
vt 0.653106 0.626799
vt 0.531250 0.500000
vt 0.659424 0.634170
vt 0.963942 0.500000
vt 0.937500 0.500000
vt 0.307697 0.500000
vt 0.281250 0.500000
vt 0.336629 0.631012
vt 0.304910 0.500000
vt 0.281250 0.500000
vt 0.354211 0.628795
vt 0.994101 0.500000
vt 0.652259 0.634297
vt 0.968750 0.500000
vt 0.300262 0.500000
vt 0.281250 0.500000
vt 0.375000 0.625512
vt 0.500000 0.500000
vt 0.641672 0.624419
vt 0.523846 0.500000
vt 0.715458 0.500000
vt 0.687500 0.500000
vt 0.664524 0.630900
vt 0.028902 0.500000
vt 0.625000 0.634094
vt 0.276629 0.500000
vt 0.250000 0.500000
vt 0.335578 0.631750
vt 0.023537 0.500000
vt 0.640409 0.634297
vt 1.000000 0.500000
vt 0.491725 0.500000
vt 0.625000 0.621184
vt 0.273552 0.500000
vt 0.250000 0.500000
vt 0.355026 0.629692
vt 0.250000 0.500000
vt 0.269119 0.500000
vt 0.375000 0.627118
vt 0.519736 0.500000
vt 0.500000 0.500000
vt 0.625000 0.619566
vt 0.625000 0.617099
vt 0.548077 0.500000
vt 0.531250 0.500000
vt 0.684120 0.500000
vt 0.656250 0.500000
vt 0.663773 0.630407
vt 0.019579 0.500000
vt 0.625000 0.634879
vt 1.000000 0.500000
vt 0.245085 0.500000
vt 0.218750 0.500000
vt 0.337295 0.632209
vt 0.242347 0.500000
vt 0.218750 0.500000
vt 0.354502 0.630738
vt 0.625000 0.636017
vt 0.985335 0.500000
vt 0.968750 0.500000
vt 0.237745 0.500000
vt 0.218750 0.500000
vt 0.375000 0.628675
vt 0.625000 0.613942
vt 0.575043 0.500000
vt 0.562500 0.500000
vt 0.652661 0.500000
vt 0.625000 0.500000
vt 0.662358 0.629817
vt 0.949515 0.500000
vt 0.625000 0.637306
vt 0.937500 0.500000
vt 0.375000 0.628637
vt 0.237745 0.500000
vt 0.218750 0.500000
vt 0.654401 0.500000
vt 0.663213 0.630137
vt 0.269119 0.500000
vt 0.375000 0.627082
vt 0.250000 0.500000
vt 0.187500 0.500000
vt 0.212865 0.500000
vt 0.342943 0.632472
vt 0.375000 0.631705
vt 0.174243 0.500000
vt 0.156250 0.500000
vt 0.187500 0.500000
vt 0.206129 0.500000
vt 0.375000 0.630213
vt 0.361801 0.500000
vt 0.375000 0.621963
vt 0.343750 0.500000
vt 0.211287 0.500000
vt 0.187500 0.500000
vt 0.352719 0.631832
vt 0.187500 0.500000
vt 0.375000 0.630169
vt 0.206129 0.500000
vt 0.620968 0.500000
vt 0.593750 0.500000
vt 0.659720 0.628996
vt 0.375000 0.623781
vt 0.331165 0.500000
vt 0.312500 0.500000
vt 0.599504 0.500000
vt 0.593750 0.500000
vt 0.625000 0.609404
vt 0.300262 0.500000
vt 0.375000 0.625474
vt 0.281250 0.500000
vt 0.183050 0.500000
vt 0.350982 0.632479
vt 0.375000 0.634907
vt 0.109411 0.500000
vt 0.093750 0.500000
vt 0.174243 0.500000
vt 0.156250 0.500000
vt 0.375000 0.631759
vt 0.422031 0.500000
vt 0.375000 0.617733
vt 0.406250 0.500000
vt 0.591725 0.500000
vt 0.625000 0.610165
vt 0.375000 0.633274
vt 0.142033 0.500000
vt 0.125000 0.500000
vt 0.589055 0.500000
vt 0.562500 0.500000
vt 0.655769 0.627924
vt 0.392117 0.500000
vt 0.375000 0.619970
vt 0.375000 0.500000
vt 0.575043 0.500000
vt 0.562500 0.500000
vt 0.625000 0.613904
vt 0.451405 0.500000
vt 0.375000 0.615159
vt 0.437500 0.500000
vt 0.998646 0.500000
vt 0.375000 0.640928
vt 0.062500 0.500000
vt 0.375000 0.636640
vt 0.076238 0.500000
vt 0.985335 0.500000
vt 0.968750 0.500000
vt 0.625000 0.635990
vt 0.375000 0.612057
vt 0.479959 0.500000
vt 0.468750 0.500000
vt 1.000000 0.500000
vt 0.006702 0.500000
vt 0.375000 0.640818
vt 1.000000 0.500000
vt 0.019579 0.500000
vt 0.625000 0.634873
vt 0.375000 0.638588
vt 0.042131 0.500000
vt 0.031250 0.500000
vt 0.968750 0.500000
vt 0.994101 0.500000
vt 0.649172 0.633964
vt 0.375000 0.640814
vt 1.000000 0.500000
vt 0.006702 0.500000
vt 0.023537 0.500000
vt 1.000000 0.500000
vt 0.638687 0.634111
vt 0.375000 0.608091
vt 0.507187 0.500000
vt 0.500000 0.500000
vt 0.375000 0.637722
vt 0.082915 0.500000
vt 0.142033 0.500000
vt 0.125000 0.500000
vt 0.375000 0.633342
vt 0.531908 0.500000
vt 0.531250 0.500000
vt 0.375000 0.600211
vt 0.375000 0.593524
vt 0.423233 0.500000
vt 0.375000 0.637049
vt 0.093750 0.500000
vt 0.556781 0.500000
vt 0.531250 0.500000
vt 0.649666 0.626439
vt 0.375000 0.637098
vt 0.093750 0.500000
vt 0.548077 0.500000
vt 0.531250 0.500000
vt 0.625000 0.617047
vt 0.375000 0.592615
vt 0.414944 0.500000
vt 0.949515 0.500000
vt 0.937500 0.500000
vt 0.625000 0.637266
vt 0.375000 0.637074
vt 0.094066 0.500000
vt 0.963942 0.500000
vt 0.937500 0.500000
vt 0.655484 0.633748
vt 0.375000 0.636779
vt 0.096706 0.500000
vt 0.109411 0.500000
vt 0.093750 0.500000
vt 0.375000 0.634992
vt 0.507187 0.500000
vt 0.500000 0.500000
vt 0.375000 0.608108
vt 0.625000 0.593539
vt 0.461093 0.500000
vt 0.509665 0.500000
vt 0.375000 0.607556
vt 0.625000 0.640036
vt 0.031250 0.500000
vt 0.500000 0.500000
vt 0.523846 0.500000
vt 0.639616 0.624203
vt 0.625000 0.594347
vt 0.468750 0.500000
vt 0.519736 0.500000
vt 0.500000 0.500000
vt 0.625000 0.619549
vt 0.625000 0.640164
vt 0.048333 0.500000
vt 0.933394 0.500000
vt 0.906250 0.500000
vt 0.659548 0.633497
vt 0.625000 0.589577
vt 0.463439 0.500000
vt 0.911026 0.500000
vt 0.906250 0.500000
vt 0.625000 0.638370
vt 0.916762 0.500000
vt 0.625000 0.638326
vt 0.625000 0.589085
vt 0.468750 0.500000
vt 0.375000 0.569034
vt 0.531250 0.500000
vt 0.062500 0.500000
vt 0.076238 0.500000
vt 0.375000 0.636744
vt 0.375000 0.661838
vt 0.479959 0.500000
vt 0.468750 0.500000
vt 0.375000 0.612158
vt 0.491725 0.500000
vt 0.625000 0.621184
vt 0.902611 0.500000
vt 0.875000 0.500000
vt 0.662252 0.633224
vt 0.375000 0.682205
vt 0.000000 0.500000
vt 0.031250 0.500000
vt 0.042131 0.500000
vt 0.375000 0.638654
vt 0.625000 0.714057
vt 0.979977 0.500000
vt 0.451405 0.500000
vt 0.437500 0.500000
vt 0.375000 0.615263
vt 0.625000 0.667659
vt 0.968750 0.500000
vt 0.871654 0.500000
vt 0.843750 0.500000
vt 0.663981 0.632930
vt 0.871997 0.500000
vt 0.663881 0.632960
vt 0.559458 0.500000
vt 0.625000 0.568421
vt 0.625000 0.570766
vt 0.562500 0.500000
vt 0.028902 0.500000
vt 0.625000 0.634094
vt 0.625000 0.564773
vt 0.562500 0.500000
vt 0.422031 0.500000
vt 0.406250 0.500000
vt 0.375000 0.617814
vt 0.024183 0.171627
vt 0.303150 1.000000
vt 0.466673 1.000000
vt 0.046291 0.124438
vt 0.337894 1.000000
vt 0.501351 1.000000
vt 0.042443 0.131638
vt 0.332472 1.000000
vt 0.495910 1.000000
vt 0.025386 0.167661
vt 0.305903 1.000000
vt 0.469436 1.000000
vt 0.067384 0.096025
vt 0.361483 1.000000
vt 0.524855 1.000000
vt 0.111791 0.054446
vt 0.402064 1.000000
vt 0.565436 1.000000
vt 0.098069 0.065707
vt 0.390273 1.000000
vt 0.553603 1.000000
vt 0.075479 0.086161
vt 0.369959 1.000000
vt 0.533361 1.000000
vt 0.133512 0.041441
vt 0.418939 1.000000
vt 0.582252 1.000000
vt 0.199593 0.015699
vt 0.466261 1.000000
vt 0.629648 1.000000
vt 0.172682 0.023862
vt 0.447583 1.000000
vt 0.610902 1.000000
vt 0.153742 0.030628
vt 0.434176 1.000000
vt 0.597543 1.000000
vt 0.214492 0.013497
vt 0.476301 1.000000
vt 0.639651 1.000000
vt 0.295301 0.014462
vt 0.530235 1.000000
vt 0.693729 1.000000
vt 0.257774 0.010766
vt 0.505188 1.000000
vt 0.668593 1.000000
vt 0.247439 0.010252
vt 0.498291 1.000000
vt 0.661720 1.000000
vt 0.301259 0.015958
vt 0.534330 1.000000
vt 0.697809 1.000000
vt 0.341226 0.028082
vt 0.562071 1.000000
vt 0.725649 1.000000
vt 0.343571 0.029192
vt 0.563801 1.000000
vt 0.727373 1.000000
vt 0.396387 0.061157
vt 0.604963 1.000000
vt 0.486427 0.277824
vt 0.058044 0.392447
vt 0.312500 1.000000
vt 0.104089 0.438066
vt 0.012846 0.221106
vt 0.269285 1.000000
vt 0.089624 0.427327
vt 0.281250 1.000000
vt 0.018044 0.307768
vt 0.375000 1.000000
vt 0.033874 0.352077
vt 0.343750 1.000000
vt 0.013459 0.214885
vt 0.273437 1.000000
vt 0.437064 1.000000
vt 0.011161 0.261222
vt 0.406250 1.000000
vt 0.013544 0.214019
vt 0.274015 1.000000
vt 0.437644 1.000000
vt 0.434020 0.097736
vt 0.476636 1.000000
vt 0.639987 1.000000
vt 0.453367 0.123799
vt 0.498196 1.000000
vt 0.661625 1.000000
vt 0.593750 1.000000
vt 0.488903 0.261133
vt 0.251901 0.010187
vt 0.337794 1.000000
vt 0.501269 1.000000
vt 0.244241 0.010567
vt 0.332700 1.000000
vt 0.496157 1.000000
vt 0.403738 0.067190
vt 0.447956 1.000000
vt 0.611280 1.000000
vt 0.424035 0.085570
vt 0.466144 1.000000
vt 0.629533 1.000000
vt 0.563904 1.000000
vt 0.486676 0.216248
vt 0.727473 1.000000
vt 0.204127 0.014518
vt 0.305830 1.000000
vt 0.469383 1.000000
vt 0.200416 0.015449
vt 0.303289 1.000000
vt 0.466833 1.000000
vt 0.368588 0.042564
vt 0.419321 1.000000
vt 0.582642 1.000000
vt 0.387607 0.053952
vt 0.434045 1.000000
vt 0.597419 1.000000
vt 0.476318 0.173277
vt 0.534519 1.000000
vt 0.697995 1.000000
vt 0.486401 0.213458
vt 0.562036 1.000000
vt 0.725611 1.000000
vt 0.158330 0.028216
vt 0.273972 1.000000
vt 0.437621 1.000000
vt 0.157671 0.028528
vt 0.273488 1.000000
vt 0.437135 1.000000
vt 0.329560 0.024543
vt 0.390631 1.000000
vt 0.553973 1.000000
vt 0.345583 0.030267
vt 0.401932 1.000000
vt 0.565316 1.000000
vt 0.458503 0.133408
vt 0.505458 1.000000
vt 0.668861 1.000000
vt 0.474424 0.167032
vt 0.530169 1.000000
vt 0.693661 1.000000
vt 0.299711 0.015488
vt 0.369838 1.000000
vt 0.533256 1.000000
vt 0.287721 0.013715
vt 0.361787 1.000000
vt 0.525176 1.000000
s 0
usemtl Yellow
f 735/1293 738/1302 260/339
f 261/341 737/1299 736/1296
f 739/1305 742/1314 258/335
f 259/337 741/1311 740/1308
f 743/1317 746/1326 254/327
f 256/331 745/1323 744/1320
f 252/323 749/1335 748/1332
f 271/361 756/1355 754/1350
f 761/1366 734/1290 262/343
f 23/29 117/142 121/150
f 422/565 157/195 426/574
f 430/582 426/574 57/71
f 161/199 428/578 437/596
f 41/55 498/722 488/702
f 149/187 504/734 518/763
f 88/102 556/842 558/847
f 563/857 571/873 80/94
f 433/588 57/71 72/86
f 576/883 66/80 49/63
f 94/108 88/102 175/213
f 100/116 140/177 131/164
f 117/142 100/116 109/129
f 140/177 601/936 131/164
f 146/184 650/1069 647/1061
f 2/2 645/1054 652/1075
f 416/554 706/1224 41/55
f 715/1246 161/199 708/1229
f 175/213 726/1272 574/879
f 66/80 729/1280 732/1285
f 291/391 289/389 40/54
f 287/387 490/707 488/703
f 432/587 428/579 309/409
f 571/874 565/862 111/133
f 732/1286 729/1279 730/1282
f 433/589 8/10 283/383
f 299/399 81/95 89/103
f 293/393 291/391 47/61
f 425/572 311/411 309/409
f 285/385 283/383 18/22
f 302/402 89/103 97/112
f 296/396 293/393 55/69
f 287/387 285/385 26/36
f 304/404 97/112 103/121
f 296/396 63/77 73/87
f 289/389 287/387 31/45
f 103/121 563/858 435/593
f 426/575 430/583 282/382
f 298/398 73/87 81/95
f 345/447 606/946 607/951
f 342/444 339/441 287/387
f 344/446 342/444 289/389
f 345/447 344/446 291/391
f 347/449 345/447 293/393
f 347/449 296/396 298/398
f 350/452 298/398 299/399
f 351/453 299/399 302/402
f 353/455 302/402 304/404
f 306/406 493/713 355/457
f 504/735 496/719 306/406
f 282/382 520/768 508/744
f 511/751 504/735 307/407
f 500/727 520/768 283/383
f 510/749 511/751 309/409
f 486/699 498/723 285/385
f 708/1230 510/749 311/411
f 347/449 601/934 606/948
f 603/941 601/935 347/449
f 610/958 603/939 350/452
f 618/977 610/956 351/453
f 628/1006 618/978 353/455
f 495/717 620/983 628/1007
f 484/695 652/1076 620/984
f 650/1070 634/1023 640/1042
f 645/1055 630/1011 626/1001
f 650/1071 654/1081 631/1015
f 645/1056 644/1051 636/1031
f 481/687 631/1016 479/683
f 621/986 481/688 490/707
f 613/965 339/441 342/444
f 344/446 607/949 611/961
f 221/259 275/369 278/375
f 264/347 760/1364 759/1361
f 265/349 760/1364 264/347
f 221/259 273/365 275/369
f 265/349 757/1357 760/1364
f 267/353 757/1357 265/349
f 755/1352 273/365 237/293
f 267/353 758/1359 757/1357
f 269/357 758/1359 267/353
f 756/1355 273/365 755/1352
f 269/357 754/1350 758/1359
f 756/1355 271/361 273/365
f 271/361 754/1350 269/357
f 23/29 121/150 15/17
f 422/565 426/574 420/562
f 426/574 157/195 57/71
f 157/195 422/565 416/554
f 430/582 57/71 433/588
f 425/571 161/199 418/558
f 161/199 435/592 49/63
f 161/199 432/586 435/592
f 428/578 161/199 425/571
f 161/199 437/596 432/586
f 508/742 41/55 513/753
f 41/55 479/682 146/184
f 481/686 488/702 490/706
f 41/55 481/686 479/682
f 520/767 41/55 508/742
f 498/722 520/767 500/726
f 488/702 498/722 486/698
f 41/55 488/702 481/686
f 498/722 41/55 520/767
f 493/712 483/691 495/716
f 483/691 149/187 484/694
f 149/187 515/757 33/47
f 149/187 510/748 515/757
f 493/712 149/187 483/691
f 496/718 149/187 493/712
f 149/187 506/738 510/748
f 149/187 511/750 506/738
f 502/730 149/187 496/718
f 504/734 149/187 502/730
f 149/187 518/763 511/750
f 553/835 88/102 568/867
f 88/102 562/855 175/213
f 88/102 558/847 562/855
f 556/842 88/102 553/835
f 565/861 563/857 560/851
f 563/857 80/94 177/215
f 80/94 571/873 569/869
f 571/873 563/857 565/861
f 433/588 72/86 574/879
f 576/883 49/63 435/592
f 94/108 175/213 188/226
f 100/116 131/164 109/129
f 117/142 109/129 121/150
f 640/1041 10/12 638/1036
f 131/164 641/1044 2/2
f 131/164 636/1030 641/1044
f 640/1041 140/177 10/12
f 634/1024 140/177 640/1041
f 131/164 630/1012 636/1030
f 131/164 626/999 630/1012
f 631/1014 140/177 634/1024
f 624/994 140/177 631/1014
f 131/164 620/982 626/999
f 131/164 628/1005 620/982
f 621/985 140/177 624/994
f 613/964 140/177 621/985
f 131/164 615/968 628/1005
f 131/164 618/976 615/968
f 611/959 140/177 613/964
f 607/950 140/177 611/959
f 131/164 610/957 618/976
f 131/164 603/940 610/957
f 606/947 140/177 607/950
f 131/164 601/936 603/940
f 601/936 140/177 606/947
f 654/1082 146/184 479/682
f 146/184 638/1036 10/12
f 146/184 647/1061 638/1036
f 650/1069 146/184 654/1082
f 644/1053 2/2 641/1044
f 2/2 484/694 149/187
f 2/2 652/1075 484/694
f 645/1054 2/2 644/1053
f 706/1224 416/554 710/1234
f 416/554 41/55 157/195
f 41/55 706/1224 513/753
f 715/1246 704/1220 712/1239
f 708/1229 33/47 515/757
f 715/1246 708/1229 704/1220
f 161/199 715/1246 418/558
f 708/1229 161/199 33/47
f 724/1267 175/213 562/855
f 175/213 574/879 72/86
f 726/1272 175/213 724/1267
f 730/1281 66/80 576/883
f 66/80 563/857 177/215
f 66/80 732/1285 563/857
f 729/1280 66/80 730/1281
f 291/391 40/54 47/61
f 490/707 287/387 339/441
f 287/387 488/703 285/385
f 428/579 432/587 437/597
f 432/587 309/409 307/407
f 8/10 574/880 726/1273
f 433/589 282/382 430/583
f 8/10 433/589 574/880
f 283/383 8/10 18/22
f 433/589 283/383 282/382
f 299/399 89/103 302/402
f 293/393 47/61 55/69
f 425/572 309/409 428/579
f 285/385 18/22 26/36
f 302/402 97/112 304/404
f 296/396 55/69 63/77
f 287/387 26/36 31/45
f 304/404 103/121 306/406
f 296/396 73/87 298/398
f 289/389 31/45 40/54
f 560/852 111/133 565/862
f 103/121 307/407 306/406
f 307/407 435/593 432/587
f 435/593 730/1282 576/884
f 730/1282 563/858 732/1286
f 560/852 103/121 111/133
f 435/593 563/858 730/1282
f 563/858 103/121 560/852
f 103/121 435/593 307/407
f 426/575 282/382 280/380
f 298/398 81/95 299/399
f 345/447 607/951 344/446
f 342/444 287/387 289/389
f 344/446 289/389 291/391
f 345/447 291/391 293/393
f 347/449 293/393 296/396
f 347/449 298/398 350/452
f 350/452 299/399 351/453
f 351/453 302/402 353/455
f 353/455 304/404 355/457
f 493/713 306/406 496/719
f 306/406 355/457 304/404
f 355/457 493/713 495/717
f 496/719 504/735 502/731
f 504/735 306/406 307/407
f 282/382 508/744 280/380
f 504/735 511/751 518/764
f 511/751 307/407 309/409
f 500/727 283/383 498/723
f 283/383 520/768 282/382
f 511/751 510/749 506/739
f 510/749 309/409 311/411
f 486/699 285/385 488/703
f 285/385 498/723 283/383
f 510/749 708/1230 515/758
f 708/1230 311/411 313/413
f 347/449 606/948 345/447
f 603/941 347/449 350/452
f 610/958 350/452 351/453
f 618/977 351/453 353/455
f 618/978 628/1006 615/969
f 628/1006 353/455 355/457
f 620/983 495/717 483/692
f 495/717 628/1007 355/457
f 484/695 620/984 483/693
f 620/984 652/1076 626/1000
f 650/1070 640/1042 647/1062
f 645/1055 626/1001 652/1077
f 650/1071 631/1015 634/1025
f 645/1056 636/1031 630/1013
f 631/1016 481/687 624/995
f 479/683 631/1016 654/1083
f 481/688 621/986 624/996
f 621/986 490/707 339/441
f 339/441 613/965 621/987
f 613/965 342/444 611/960
f 344/446 611/961 342/444
usemtl Red
f 7/9 396/506 398/510
f 132/166 128/160 133/167
f 139/176 133/167 143/181
f 39/53 290/390 292/392
f 747/1329 750/1338 251/321
f 751/1341 752/1344 248/315
f 419/560 340/442 288/388
f 427/576 434/590 308/408
f 431/584 423/567 429/580
f 440/602 436/594 441/604
f 7/9 443/609 284/384
f 87/101 79/93 300/400
f 50/64 292/392 294/394
f 458/640 427/576 310/410
f 412/545 466/656 459/642
f 17/21 284/384 286/386
f 95/109 87/101 301/401
f 56/70 294/394 295/395
f 477/678 458/640 314/414
f 459/642 475/674 133/167
f 24/32 286/386 288/388
f 105/124 95/109 303/403
f 335/435 480/684 489/704
f 71/85 64/78 295/395
f 314/414 494/714 474/672
f 34/48 288/388 290/390
f 503/732 105/124 497/720
f 281/381 445/613 509/745
f 509/746 480/684 335/435
f 79/93 71/85 297/397
f 346/448 343/445 532/791
f 335/435 487/700 542/813
f 314/414 552/833 554/837
f 288/388 340/442 341/443
f 559/849 279/377 335/435
f 290/390 341/443 343/445
f 292/392 343/445 346/448
f 294/394 346/448 348/450
f 297/397 295/395 348/450
f 300/400 297/397 349/451
f 301/401 300/400 352/454
f 303/403 301/401 354/456
f 572/875 567/865 303/403
f 567/865 573/877 308/408
f 555/839 337/437 579/889
f 557/845 577/885 281/381
f 358/460 581/893 583/897
f 573/877 586/903 310/410
f 592/915 594/919 281/381
f 599/929 581/893 360/462
f 586/903 602/937 312/412
f 605/944 419/560 284/384
f 361/463 549/827 597/925
f 602/937 552/833 314/414
f 533/795 619/979 348/450
f 348/450 619/980 629/1008
f 637/1032 352/454 349/451
f 646/1057 354/456 352/454
f 656/1087 356/458 354/456
f 653/1079 666/1116 572/875
f 664/1111 676/1144 672/1133
f 590/911 691/1187 358/460
f 674/1139 694/1194 696/1199
f 358/460 705/1222 703/1217
f 707/1227 709/1231 696/1200
f 700/1210 713/1241 714/1244
f 361/463 360/462 703/1218
f 709/1232 707/1226 720/1257
f 711/1237 340/442 421/563
f 721/1260 727/1274 341/443
f 683/1165 731/1283 687/1176
f 343/445 341/443 727/1275
f 123/153 118/144 25/33
f 160/198 516/760 509/747
f 48/62 424/570 427/577
f 594/920 577/886 148/186
f 573/878 150/188 587/906
f 398/511 90/104 505/737
f 82/96 438/599 503/733
f 59/73 58/72 74/88
f 74/88 58/72 443/610
f 48/62 65/79 499/725
f 51/65 70/84 65/79
f 90/104 400/516 394/502
f 85/99 409/538 406/531
f 129/161 138/174 101/118
f 110/131 101/118 118/144
f 129/161 619/981 138/174
f 9/11 680/1157 698/1206
f 150/188 696/1201 709/1233
f 42/56 542/814 489/705
f 552/834 32/46 474/673
f 74/88 507/741 505/737
f 178/216 441/605 436/595
f 132/166 133/167 139/176
f 139/176 143/181 145/183
f 39/53 292/392 50/64
f 755/1352 246/311 753/1347
f 246/311 242/303 243/305
f 242/303 237/293 239/297
f 237/293 233/285 235/289
f 233/285 230/279 231/281
f 230/279 226/271 227/273
f 226/271 221/259 224/267
f 230/279 221/259 226/271
f 237/293 230/279 233/285
f 246/311 237/293 242/303
f 755/1352 237/293 246/311
f 237/293 221/259 230/279
f 237/293 273/365 221/259
f 340/442 419/560 421/563
f 419/560 288/388 286/386
f 434/590 427/576 424/569
f 427/576 308/408 310/410
f 448/619 7/9 450/623
f 7/9 284/384 17/21
f 284/384 445/613 281/381
f 443/609 7/9 448/619
f 284/384 443/609 445/613
f 87/101 300/400 301/401
f 50/64 294/394 56/70
f 458/640 310/410 312/412
f 423/567 412/545 429/580
f 412/545 459/642 128/160
f 459/642 464/652 461/646
f 466/656 412/545 423/567
f 459/642 466/656 464/652
f 17/21 286/386 24/32
f 95/109 301/401 303/403
f 56/70 295/395 64/78
f 477/678 314/414 474/672
f 314/414 458/640 312/412
f 459/642 133/167 128/160
f 24/32 288/388 34/48
f 105/124 303/403 305/405
f 335/435 489/704 487/700
f 71/85 295/395 297/397
f 34/48 290/390 39/53
f 503/732 436/594 440/602
f 436/594 497/720 499/724
f 497/720 308/408 434/590
f 308/408 105/124 305/405
f 105/124 438/598 113/136
f 105/124 501/728 438/598
f 497/720 105/124 308/408
f 503/732 497/720 436/594
f 105/124 503/732 501/728
f 281/381 509/745 279/378
f 480/684 509/746 516/759
f 509/746 335/435 279/377
f 79/93 297/397 300/400
f 346/448 532/791 533/794
f 335/435 542/813 540/809
f 314/414 554/837 494/714
f 288/388 341/443 290/390
f 279/377 559/849 557/844
f 559/849 335/435 540/809
f 290/390 343/445 292/392
f 292/392 346/448 294/394
f 294/394 348/450 295/395
f 297/397 348/450 349/451
f 300/400 349/451 352/454
f 301/401 352/454 354/456
f 303/403 354/456 356/458
f 567/865 572/875 570/871
f 572/875 303/403 356/458
f 303/403 567/865 305/405
f 573/877 567/865 575/881
f 567/865 308/408 305/405
f 557/845 281/381 279/378
f 358/460 583/897 590/911
f 586/903 573/877 587/905
f 573/877 310/410 308/408
f 592/915 281/381 577/885
f 281/381 594/919 284/384
f 599/929 360/462 597/925
f 360/462 581/893 358/460
f 602/937 586/903 604/942
f 586/903 312/412 310/410
f 605/944 284/384 594/919
f 284/384 419/560 286/386
f 361/463 597/925 360/462
f 552/833 602/937 614/966
f 602/937 314/414 312/412
f 533/795 348/450 346/448
f 348/450 629/1008 349/451
f 637/1032 349/451 629/1009
f 646/1057 352/454 637/1033
f 356/458 656/1087 653/1078
f 656/1087 354/456 646/1058
f 666/1116 653/1079 664/1110
f 653/1079 572/875 356/458
f 676/1144 664/1111 674/1138
f 664/1111 672/1133 666/1117
f 674/1139 696/1199 676/1145
f 705/1222 358/460 691/1188
f 358/460 703/1217 360/462
f 707/1227 696/1200 694/1195
f 713/1241 700/1210 711/1236
f 700/1210 714/1244 698/1205
f 361/463 703/1218 719/1254
f 340/442 711/1237 721/1259
f 711/1237 421/563 713/1242
f 727/1274 721/1260 728/1277
f 721/1260 341/443 340/442
f 343/445 727/1275 532/792
f 123/153 25/33 16/19
f 480/685 160/198 489/705
f 160/198 443/610 58/72
f 160/198 445/614 443/610
f 516/760 160/198 480/685
f 160/198 509/747 445/614
f 434/591 48/62 497/721
f 48/62 477/679 164/202
f 48/62 458/641 477/679
f 424/570 48/62 434/591
f 48/62 427/577 458/641
f 594/920 419/561 605/945
f 419/561 713/1243 421/564
f 713/1243 148/186 714/1245
f 148/186 559/850 42/56
f 148/186 557/846 559/850
f 419/561 148/186 713/1243
f 577/886 594/920 592/916
f 594/920 148/186 419/561
f 148/186 577/886 557/846
f 666/1118 570/872 572/876
f 666/1118 567/866 570/872
f 150/188 666/1118 672/1134
f 614/967 150/188 32/46
f 602/938 150/188 614/967
f 150/188 567/866 666/1118
f 150/188 575/882 567/866
f 604/943 150/188 602/938
f 586/904 150/188 604/943
f 150/188 573/878 575/882
f 587/906 150/188 586/904
f 90/104 404/526 402/521
f 90/104 396/507 404/526
f 505/737 90/104 174/212
f 90/104 398/511 396/507
f 408/536 82/96 406/531
f 82/96 503/733 178/216
f 503/733 438/599 501/729
f 438/599 82/96 408/536
f 59/73 74/88 77/91
f 74/88 443/610 448/620
f 48/62 499/725 497/721
f 51/65 65/79 48/62
f 400/516 90/104 402/521
f 90/104 394/502 92/106
f 409/538 85/99 415/553
f 85/99 406/531 82/96
f 129/161 101/118 110/131
f 110/131 118/144 123/153
f 707/1228 1/1 720/1258
f 138/174 731/1284 9/11
f 138/174 687/1178 731/1284
f 707/1228 129/161 1/1
f 694/1196 129/161 707/1228
f 138/174 685/1172 687/1178
f 138/174 700/1211 685/1172
f 674/1140 129/161 694/1196
f 664/1112 129/161 674/1140
f 138/174 711/1238 700/1211
f 138/174 721/1261 711/1238
f 653/1080 129/161 664/1112
f 656/1088 129/161 653/1080
f 138/174 728/1278 721/1261
f 138/174 727/1276 728/1278
f 646/1059 129/161 656/1088
f 637/1034 129/161 646/1059
f 138/174 532/793 727/1276
f 138/174 533/796 532/793
f 629/1010 129/161 637/1034
f 138/174 619/981 533/796
f 619/981 129/161 629/1010
f 683/1166 9/11 731/1284
f 9/11 714/1245 148/186
f 9/11 698/1206 714/1245
f 680/1157 9/11 683/1166
f 676/1146 150/188 672/1134
f 150/188 720/1258 1/1
f 150/188 709/1233 720/1258
f 696/1201 150/188 676/1146
f 540/810 42/56 559/850
f 42/56 489/705 160/198
f 489/705 542/814 487/701
f 542/814 42/56 540/810
f 552/834 494/715 554/838
f 474/673 164/202 477/679
f 552/834 474/673 494/715
f 32/46 552/834 614/967
f 474/673 32/46 164/202
f 450/624 74/88 448/620
f 74/88 505/737 174/212
f 507/741 74/88 450/624
f 440/603 178/216 503/733
f 178/216 499/725 65/79
f 178/216 436/595 499/725
f 441/605 178/216 440/603
usemtl grey
f 394/501 400/515 3/4
f 17/21 402/520 404/525
f 21/27 17/21 24/32
f 28/40 24/32 34/48
f 38/52 34/48 39/53
f 43/57 39/53 50/64
f 54/68 50/64 56/70
f 62/76 56/70 64/78
f 67/81 64/78 71/85
f 75/89 71/85 79/93
f 83/97 79/93 87/101
f 93/107 87/101 95/109
f 99/115 95/109 105/124
f 107/127 105/124 113/136
f 406/530 122/151 113/136
f 122/151 413/547 128/160
f 145/183 143/181 151/189
f 156/194 151/189 158/196
f 162/200 158/196 168/206
f 172/210 168/206 176/214
f 179/217 176/214 183/221
f 187/225 183/221 189/227
f 191/229 189/227 193/231
f 195/233 193/231 197/235
f 199/237 197/235 201/239
f 203/241 201/239 206/244
f 208/246 206/244 210/248
f 212/250 210/248 214/252
f 62/76 67/81 237/294
f 216/254 214/252 218/256
f 218/256 392/497 3/3
f 132/166 762/1370 763/1373
f 195/233 199/237 267/354
f 28/40 38/52 230/280
f 99/115 764/1375 753/1348
f 179/217 766/1381 765/1378
f 216/254 220/258 278/376
f 75/89 239/298 237/294
f 139/176 767/1384 768/1387
f 199/237 203/241 269/358
f 38/52 43/57 231/282
f 248/316 769/1389 107/127
f 179/217 771/1396 770/1393
f 3/4 11/13 224/268
f 220/258 3/3 221/261
f 83/97 242/304 239/298
f 145/183 772/1399 773/1402
f 203/241 208/246 271/362
f 43/57 54/68 233/286
f 115/139 774/1405 775/1408
f 191/229 777/1414 776/1411
f 11/13 21/27 226/272
f 93/107 243/306 242/304
f 156/194 778/1417 779/1420
f 208/246 212/250 273/366
f 54/68 62/76 235/290
f 122/151 780/1423 781/1426
f 191/229 195/233 265/350
f 21/27 28/40 227/274
f 99/115 246/312 243/306
f 162/200 783/1432 782/1429
f 212/250 216/254 275/370
f 438/598 408/535 113/136
f 189/227 183/221 324/424
f 158/196 151/189 316/416
f 456/636 452/627 206/244
f 189/227 325/425 327/427
f 168/206 158/196 318/418
f 472/668 468/660 210/248
f 193/231 327/427 330/430
f 176/214 168/206 320/420
f 485/696 218/256 214/252
f 491/708 492/710 133/167
f 197/235 330/430 331/431
f 183/221 176/214 321/421
f 450/623 7/9 505/736
f 521/769 524/775 482/689
f 529/785 316/416 143/181
f 201/239 331/431 334/434
f 535/799 388/490 389/491
f 548/825 549/827 363/465
f 555/840 538/805 389/491
f 365/467 566/863 561/853
f 318/418 316/416 365/467
f 320/420 318/418 367/469
f 321/421 320/420 369/471
f 324/424 321/421 371/473
f 325/425 324/424 373/475
f 325/425 376/478 377/479
f 327/427 377/479 379/481
f 330/430 379/481 382/484
f 331/431 382/484 384/486
f 596/923 334/434 384/486
f 612/962 596/923 385/487
f 369/471 367/469 617/973
f 371/473 369/471 616/971
f 627/1002 625/997 623/991
f 373/475 371/473 622/989
f 623/992 632/1017 633/1020
f 632/1018 639/1037 642/1045
f 376/478 373/475 635/1027
f 642/1046 639/1038 648/1063
f 376/478 643/1048 651/1072
f 658/1093 662/1104 649/1067
f 660/1099 379/481 377/479
f 668/1122 662/1105 658/1092
f 379/481 660/1098 670/1127
f 680/1155 683/1164 687/1177
f 678/1150 579/889 337/437
f 690/1184 384/486 382/484
f 680/1156 685/1170 700/1209
f 702/1214 385/487 384/486
f 717/1251 388/490 385/487
f 388/490 717/1250 723/1265
f 363/465 361/463 719/1255
f 389/491 723/1264 682/1162
f 365/467 363/465 725/1270
f 367/469 365/467 733/1288
f 118/143 119/146 29/42
f 658/1094 648/1065 14/16
f 5/6 627/1004 633/1022
f 142/180 148/186 42/56
f 599/930 35/49 581/894
f 46/60 538/806 555/841
f 51/65 464/653 466/657
f 77/91 521/770 517/762
f 475/675 51/65 492/711
f 59/73 485/697 468/661
f 160/198 58/72 59/73
f 429/581 85/99 431/585
f 92/106 417/557 519/766
f 174/212 90/104 92/106
f 98/113 112/135 119/145
f 138/175 125/155 104/122
f 112/135 20/25 29/43
f 101/119 104/122 119/146
f 9/11 14/16 125/155
f 136/172 98/113 104/123
f 14/16 643/1050 5/6
f 14/16 9/11 148/186
f 42/56 160/198 170/208
f 566/864 529/786 35/49
f 452/628 609/955 46/60
f 74/88 174/212 186/224
f 466/657 431/585 182/220
f 519/766 514/756 77/91
f 4/5 391/495 397/509
f 411/543 393/500 127/159
f 153/191 457/638 460/644
f 141/179 467/658 463/650
f 527/781 523/773 52/66
f 522/771 526/779 76/90
f 551/831 546/821 167/205
f 169/207 543/815 541/811
f 591/913 588/907 184/222
f 585/901 600/931 94/108
f 120/147 114/138 96/110
f 27/39 19/23 114/138
f 106/126 96/110 135/170
f 4/5 657/1090 13/15
f 692/1190 37/51 539/807
f 689/1182 695/1197 169/207
f 184/222 716/1248 527/781
f 526/779 722/1262 188/226
f 580/892 6/8 12/14
f 30/44 26/36 18/22
f 31/45 26/36 30/44
f 45/59 40/54 31/45
f 47/61 40/54 45/59
f 61/75 55/69 47/61
f 69/83 63/77 55/69
f 73/87 63/77 69/83
f 81/95 73/87 78/92
f 91/105 89/103 81/95
f 97/112 89/103 91/105
f 108/128 103/121 97/112
f 116/140 111/133 103/121
f 569/870 111/133 124/154
f 126/157 582/896 124/154
f 134/168 126/157 130/163
f 147/185 144/182 134/168
f 155/193 152/190 144/182
f 163/201 159/197 152/190
f 166/204 159/197 163/201
f 180/218 173/211 166/204
f 185/223 181/219 173/211
f 190/228 181/219 185/223
f 196/234 194/232 190/228
f 198/236 194/232 196/234
f 202/240 198/236 200/238
f 207/245 205/243 202/240
f 211/249 209/247 205/243
f 215/253 213/251 209/247
f 238/296 69/83 61/75
f 217/255 213/251 215/253
f 600/933 217/255 219/257
f 130/163 736/1298 737/1301
f 268/356 200/238 196/234
f 229/278 36/50 30/44
f 108/128 744/1322 745/1325
f 180/218 171/209 758/1360
f 277/374 219/257 215/253
f 78/92 752/1346 751/1343
f 137/173 734/1292 761/1368
f 270/360 204/242 200/238
f 232/284 45/59 36/50
f 742/1316 739/1307 116/140
f 185/223 180/218 754/1351
f 223/266 12/14 6/8
f 222/264 6/7 219/257
f 86/100 750/1340 747/1331
f 147/185 759/1363 760/1365
f 272/364 207/245 204/242
f 234/288 53/67 45/59
f 124/154 740/1310 741/1313
f 192/230 756/1356 755/1354
f 225/270 22/28 12/14
f 91/105 748/1334 749/1337
f 163/201 155/193 760/1365
f 274/368 211/249 207/245
f 236/292 61/75 53/67
f 130/163 738/1304 735/1295
f 266/352 196/234 192/230
f 228/276 30/44 22/28
f 746/1328 743/1319 102/120
f 171/209 163/201 757/1358
f 276/372 215/253 211/249
f 323/423 181/219 190/228
f 315/415 152/190 159/197
f 695/1198 701/1213 205/243
f 527/782 591/914 551/832
f 328/428 326/426 190/228
f 317/417 159/197 166/204
f 537/804 209/247 536/802
f 311/411 418/559 715/1247
f 551/832 126/157 134/168
f 329/429 328/428 194/232
f 319/419 166/204 173/211
f 541/812 536/802 213/251
f 530/788 546/822 144/182
f 332/432 329/429 198/236
f 322/422 173/211 181/219
f 526/780 217/255 585/902
f 539/808 144/182 315/415
f 333/433 332/432 202/240
f 387/489 467/659 455/635
f 462/649 465/655 362/464
f 364/466 478/681 366/468
f 366/468 315/415 317/417
f 368/470 317/417 319/419
f 370/472 319/419 322/422
f 372/474 322/422 323/423
f 374/476 323/423 326/426
f 378/480 375/477 326/426
f 380/482 378/480 328/428
f 381/483 380/482 329/429
f 383/485 381/483 332/432
f 701/1213 386/488 383/485
f 460/645 457/639 357/459
f 693/1193 473/671 386/488
f 457/639 470/665 362/464
f 370/472 661/1101 675/1143
f 661/1103 370/472 372/474
f 374/476 667/1119 665/1115
f 414/551 391/494 403/524
f 375/477 657/1089 667/1121
f 405/529 403/522 399/513
f 375/477 378/480 655/1085
f 410/541 407/532 399/514
f 378/480 380/482 663/1109
f 411/544 410/539 401/519
f 659/1096 663/1107 380/482
f 381/483 383/485 673/1136
f 444/611 357/459 442/606
f 383/485 386/488 669/1125
f 359/461 449/622 442/608
f 386/488 387/489 679/1154
f 688/1181 359/461 362/464
f 684/1168 679/1152 387/489
f 364/466 677/1147 681/1160
f 366/468 671/1130 677/1149
f 368/470 675/1141 671/1132
f 394/501 3/4 392/496
f 3/4 400/515 11/13
f 402/520 11/13 400/515
f 11/13 17/21 21/27
f 17/21 396/506 7/9
f 17/21 404/525 396/506
f 402/520 17/21 11/13
f 21/27 24/32 28/40
f 28/40 34/48 38/52
f 38/52 39/53 43/57
f 43/57 50/64 54/68
f 54/68 56/70 62/76
f 62/76 64/78 67/81
f 67/81 71/85 75/89
f 75/89 79/93 83/97
f 83/97 87/101 93/107
f 93/107 95/109 99/115
f 99/115 105/124 107/127
f 107/127 113/136 115/139
f 406/530 113/136 408/535
f 113/136 122/151 115/139
f 122/151 406/530 409/537
f 415/552 122/151 409/537
f 122/151 128/160 132/166
f 128/160 413/547 412/545
f 413/547 122/151 415/552
f 145/183 151/189 156/194
f 156/194 158/196 162/200
f 162/200 168/206 172/210
f 172/210 176/214 179/217
f 179/217 183/221 187/225
f 187/225 189/227 191/229
f 191/229 193/231 195/233
f 195/233 197/235 199/237
f 199/237 201/239 203/241
f 203/241 206/244 208/246
f 208/246 210/248 212/250
f 212/250 214/252 216/254
f 62/76 237/294 235/290
f 216/254 218/256 220/258
f 392/497 218/256 417/556
f 218/256 3/3 220/258
f 762/1370 254/328 746/1327
f 254/328 132/166 139/176
f 132/166 749/1336 252/324
f 132/166 763/1373 749/1336
f 762/1370 132/166 254/328
f 195/233 267/354 265/350
f 28/40 230/280 227/274
f 764/1375 99/115 107/127
f 99/115 753/1348 246/312
f 736/1297 179/217 261/342
f 179/217 260/340 172/210
f 260/340 765/1378 735/1294
f 766/1381 179/217 736/1297
f 179/217 765/1378 260/340
f 216/254 278/376 275/370
f 75/89 237/294 67/81
f 767/1384 256/332 744/1321
f 256/332 139/176 145/183
f 139/176 743/1318 254/328
f 139/176 768/1387 743/1318
f 767/1384 139/176 256/332
f 199/237 269/358 267/354
f 38/52 231/282 230/280
f 769/1389 248/316 752/1345
f 248/316 107/127 115/139
f 107/127 769/1389 764/1375
f 771/1396 262/344 734/1291
f 262/344 179/217 187/225
f 179/217 737/1300 261/342
f 179/217 770/1393 737/1300
f 771/1396 179/217 262/344
f 3/4 224/268 221/260
f 220/258 221/261 278/376
f 83/97 239/298 75/89
f 772/1399 258/336 742/1315
f 258/336 145/183 156/194
f 145/183 745/1324 256/332
f 145/183 773/1402 745/1324
f 772/1399 145/183 258/336
f 203/241 271/362 269/358
f 43/57 233/286 231/282
f 774/1405 251/322 750/1339
f 251/322 115/139 122/151
f 115/139 751/1342 248/316
f 115/139 775/1408 751/1342
f 774/1405 115/139 251/322
f 759/1362 191/229 264/348
f 191/229 262/344 187/225
f 262/344 776/1411 761/1367
f 777/1414 191/229 759/1362
f 191/229 776/1411 262/344
f 11/13 226/272 224/268
f 93/107 242/304 83/97
f 778/1417 259/338 740/1309
f 259/338 156/194 162/200
f 156/194 739/1306 258/336
f 156/194 779/1420 739/1306
f 778/1417 156/194 259/338
f 208/246 273/366 271/362
f 54/68 235/290 233/286
f 780/1423 252/324 748/1333
f 252/324 122/151 132/166
f 122/151 747/1330 251/322
f 122/151 781/1426 747/1330
f 780/1423 122/151 252/324
f 191/229 265/350 264/348
f 21/27 227/274 226/272
f 99/115 243/306 93/107
f 783/1432 260/340 738/1303
f 260/340 162/200 172/210
f 162/200 741/1312 259/338
f 162/200 782/1429 741/1312
f 783/1432 162/200 260/340
f 212/250 275/370 273/366
f 189/227 324/424 325/425
f 158/196 316/416 318/418
f 452/627 456/636 454/632
f 456/636 206/244 334/434
f 206/244 452/627 210/248
f 189/227 327/427 193/231
f 168/206 318/418 320/420
f 472/668 210/248 452/627
f 210/248 468/660 214/252
f 468/660 472/668 469/662
f 193/231 330/430 197/235
f 176/214 320/420 321/421
f 218/256 485/696 482/689
f 485/696 214/252 468/660
f 491/708 133/167 475/674
f 133/167 492/710 143/181
f 197/235 331/431 201/239
f 183/221 321/421 324/424
f 450/623 505/736 507/740
f 505/736 7/9 398/510
f 519/765 514/755 512/752
f 521/769 525/777 517/761
f 519/765 521/769 514/755
f 218/256 524/775 417/556
f 524/775 521/769 519/765
f 521/769 482/689 525/777
f 482/689 524/775 218/256
f 529/785 143/181 492/710
f 143/181 316/416 151/189
f 316/416 529/785 528/783
f 201/239 334/434 206/244
f 388/490 535/799 544/817
f 535/799 389/491 538/805
f 548/825 363/465 545/819
f 363/465 549/827 361/463
f 555/840 389/491 337/438
f 566/863 316/416 528/783
f 365/467 545/819 363/465
f 365/467 564/859 545/819
f 566/863 365/467 316/416
f 365/467 561/853 564/859
f 318/418 365/467 367/469
f 320/420 367/469 369/471
f 321/421 369/471 371/473
f 324/424 371/473 373/475
f 325/425 373/475 376/478
f 325/425 377/479 327/427
f 327/427 379/481 330/430
f 330/430 382/484 331/431
f 331/431 384/486 334/434
f 334/434 596/923 456/636
f 596/923 384/486 385/487
f 612/962 544/817 608/952
f 544/817 385/487 388/490
f 596/923 612/962 609/954
f 612/962 385/487 544/817
f 369/471 617/973 616/970
f 371/473 616/971 622/988
f 373/475 622/989 635/1026
f 623/992 633/1020 627/1003
f 632/1018 642/1045 633/1021
f 376/478 635/1027 643/1049
f 642/1046 648/1063 649/1066
f 376/478 651/1072 377/479
f 658/1093 649/1067 648/1064
f 660/1099 377/479 651/1073
f 379/481 670/1127 382/484
f 680/1155 687/1177 685/1171
f 678/1150 337/437 682/1161
f 690/1184 382/484 670/1128
f 680/1156 700/1209 698/1204
f 702/1214 384/486 690/1185
f 717/1251 385/487 702/1215
f 388/490 723/1265 389/491
f 363/465 719/1255 725/1269
f 389/491 682/1162 337/438
f 365/467 725/1270 733/1287
f 367/469 733/1288 617/974
f 118/143 29/42 25/34
f 658/1094 14/16 668/1123
f 14/16 648/1065 125/156
f 639/1039 125/156 648/1065
f 125/156 5/6 136/172
f 14/16 662/1106 668/1123
f 14/16 649/1068 662/1106
f 639/1039 5/6 125/156
f 632/1019 5/6 639/1039
f 14/16 642/1047 649/1068
f 5/6 642/1047 14/16
f 623/993 5/6 632/1019
f 625/998 5/6 623/993
f 5/6 633/1022 642/1047
f 627/1004 5/6 625/998
f 142/180 42/56 46/60
f 35/49 564/860 561/854
f 545/820 549/828 548/826
f 35/49 545/820 564/860
f 705/1223 35/49 154/192
f 583/898 691/1189 590/912
f 691/1189 35/49 705/1223
f 35/49 549/828 545/820
f 35/49 597/926 549/828
f 583/898 35/49 691/1189
f 581/894 35/49 583/898
f 35/49 599/930 597/926
f 608/953 46/60 612/963
f 46/60 678/1151 142/180
f 46/60 579/890 678/1151
f 544/818 46/60 608/953
f 535/800 46/60 544/818
f 46/60 555/841 579/890
f 538/806 46/60 535/800
f 51/65 466/657 70/84
f 77/91 517/762 59/73
f 51/65 461/647 464/653
f 51/65 459/643 461/647
f 529/786 51/65 165/203
f 475/675 492/711 491/709
f 492/711 51/65 529/786
f 51/65 475/675 459/643
f 525/778 59/73 517/762
f 59/73 472/669 170/208
f 59/73 469/663 472/669
f 482/690 59/73 525/778
f 485/697 59/73 482/690
f 59/73 468/661 469/663
f 160/198 59/73 170/208
f 85/99 413/548 415/553
f 85/99 412/546 413/548
f 431/585 85/99 182/220
f 85/99 429/581 412/546
f 392/498 92/106 394/502
f 92/106 519/766 186/224
f 519/766 417/557 524/776
f 417/557 92/106 392/498
f 174/212 92/106 186/224
f 98/113 119/145 104/123
f 138/175 104/122 101/119
f 112/135 29/43 119/145
f 101/119 119/146 118/143
f 9/11 125/155 138/175
f 136/172 104/123 125/156
f 682/1163 142/180 678/1151
f 5/6 705/1223 154/192
f 5/6 703/1219 705/1223
f 682/1163 14/16 142/180
f 723/1266 14/16 682/1163
f 5/6 719/1256 703/1219
f 5/6 725/1271 719/1256
f 717/1252 14/16 723/1266
f 702/1216 14/16 717/1252
f 5/6 733/1289 725/1271
f 5/6 617/975 733/1289
f 690/1186 14/16 702/1216
f 670/1129 14/16 690/1186
f 5/6 616/972 617/975
f 5/6 622/990 616/972
f 660/1100 14/16 670/1129
f 651/1074 14/16 660/1100
f 5/6 635/1028 622/990
f 643/1050 14/16 651/1074
f 5/6 643/1050 635/1028
f 14/16 148/186 142/180
f 42/56 170/208 46/60
f 566/864 35/49 561/854
f 35/49 529/786 165/203
f 529/786 566/864 528/784
f 596/924 454/633 456/637
f 452/628 170/208 472/669
f 596/924 452/628 454/633
f 46/60 609/955 612/963
f 609/955 452/628 596/924
f 452/628 46/60 170/208
f 74/88 186/224 77/91
f 431/585 466/657 423/568
f 466/657 182/220 70/84
f 519/766 77/91 186/224
f 77/91 514/756 521/770
f 395/504 13/15 393/500
f 4/5 127/159 135/170
f 127/159 407/533 410/540
f 4/5 407/533 127/159
f 401/517 13/15 395/504
f 399/512 13/15 401/517
f 4/5 405/527 407/533
f 4/5 414/550 405/527
f 399/512 4/5 13/15
f 403/523 4/5 399/512
f 4/5 397/509 414/550
f 391/495 4/5 403/523
f 411/543 127/159 410/540
f 127/159 393/500 13/15
f 470/664 465/654 462/648
f 465/654 478/680 476/676
f 478/680 153/191 37/51
f 153/191 442/607 449/621
f 442/607 446/615 444/612
f 442/607 447/617 446/615
f 465/654 153/191 478/680
f 470/664 153/191 465/654
f 153/191 447/617 442/607
f 153/191 460/644 447/617
f 457/638 153/191 470/664
f 451/626 141/179 439/600
f 141/179 473/670 44/58
f 141/179 471/666 473/670
f 453/630 141/179 451/626
f 455/634 141/179 453/630
f 141/179 463/650 471/666
f 467/658 141/179 455/634
f 527/781 52/66 68/82
f 522/771 76/90 60/74
f 551/831 523/773 547/823
f 523/773 167/205 52/66
f 167/205 531/789 539/807
f 531/789 546/821 530/787
f 551/831 167/205 523/773
f 167/205 546/821 531/789
f 534/797 169/207 537/803
f 169/207 522/771 60/74
f 169/207 550/829 522/771
f 536/801 169/207 534/797
f 543/815 169/207 536/801
f 169/207 541/811 550/829
f 591/913 582/895 593/917
f 582/895 184/222 84/98
f 184/222 588/907 589/910
f 591/913 184/222 582/895
f 598/927 585/901 595/921
f 585/901 94/108 188/226
f 94/108 600/931 580/891
f 600/931 585/901 598/927
f 120/147 96/110 106/126
f 27/39 114/138 120/147
f 106/126 135/170 127/159
f 688/1179 153/191 449/621
f 13/15 439/600 141/179
f 13/15 686/1173 439/600
f 688/1179 4/5 153/191
f 681/1158 4/5 688/1179
f 13/15 684/1167 686/1173
f 13/15 679/1153 684/1167
f 677/1148 4/5 681/1158
f 671/1131 4/5 677/1148
f 13/15 669/1124 679/1153
f 13/15 673/1135 669/1124
f 675/1142 4/5 671/1131
f 661/1102 4/5 675/1142
f 13/15 659/1095 673/1135
f 13/15 663/1108 659/1095
f 665/1113 4/5 661/1102
f 667/1120 4/5 665/1113
f 13/15 655/1084 663/1108
f 657/1090 4/5 667/1120
f 13/15 657/1090 655/1084
f 692/1190 539/807 697/1202
f 539/807 37/51 167/205
f 37/51 692/1190 478/680
f 699/1207 693/1192 701/1212
f 689/1182 44/58 473/670
f 699/1207 689/1182 693/1192
f 169/207 695/1197 537/803
f 695/1197 689/1182 699/1207
f 689/1182 169/207 44/58
f 716/1248 184/222 589/910
f 184/222 527/781 68/82
f 722/1262 526/779 718/1253
f 526/779 188/226 76/90
f 188/226 722/1262 585/901
f 580/892 12/14 584/900
f 6/8 580/892 600/932
f 30/44 18/22 22/28
f 31/45 30/44 36/50
f 45/59 31/45 36/50
f 47/61 45/59 53/67
f 61/75 47/61 53/67
f 69/83 55/69 61/75
f 73/87 69/83 78/92
f 81/95 78/92 86/100
f 91/105 81/95 86/100
f 97/112 91/105 102/120
f 108/128 97/112 102/120
f 116/140 103/121 108/128
f 569/870 124/154 578/888
f 124/154 111/133 116/140
f 111/133 569/870 571/874
f 593/918 126/157 591/914
f 126/157 124/154 130/163
f 124/154 582/896 578/888
f 582/896 126/157 593/918
f 134/168 130/163 137/173
f 147/185 134/168 137/173
f 155/193 144/182 147/185
f 163/201 152/190 155/193
f 166/204 163/201 171/209
f 180/218 166/204 171/209
f 185/223 173/211 180/218
f 190/228 185/223 192/230
f 196/234 190/228 192/230
f 198/236 196/234 200/238
f 202/240 200/238 204/242
f 207/245 202/240 204/242
f 211/249 205/243 207/245
f 215/253 209/247 211/249
f 238/296 61/75 236/292
f 217/255 215/253 219/257
f 217/255 600/933 598/928
f 600/933 219/257 6/7
f 766/1382 130/163 253/326
f 130/163 255/330 137/173
f 255/330 737/1301 770/1394
f 736/1298 130/163 766/1382
f 130/163 737/1301 255/330
f 268/356 196/234 266/352
f 229/278 30/44 228/276
f 744/1322 245/310 767/1385
f 245/310 108/128 102/120
f 108/128 773/1403 247/314
f 108/128 745/1325 773/1403
f 744/1322 108/128 245/310
f 180/218 758/1360 754/1351
f 277/374 215/253 276/372
f 752/1346 238/296 769/1391
f 238/296 78/92 69/83
f 78/92 775/1409 240/300
f 78/92 751/1343 775/1409
f 752/1346 78/92 238/296
f 771/1397 137/173 255/330
f 137/173 257/334 147/185
f 257/334 761/1368 776/1412
f 734/1292 137/173 771/1397
f 137/173 761/1368 257/334
f 270/360 200/238 268/356
f 232/284 36/50 229/278
f 742/1316 247/314 772/1400
f 247/314 116/140 108/128
f 116/140 779/1421 249/318
f 116/140 739/1307 779/1421
f 742/1316 116/140 247/314
f 185/223 754/1351 756/1356
f 223/266 6/8 222/263
f 222/264 219/257 277/374
f 750/1340 240/300 774/1406
f 240/300 86/100 78/92
f 86/100 781/1427 241/302
f 86/100 747/1331 781/1427
f 750/1340 86/100 240/300
f 777/1415 147/185 257/334
f 147/185 760/1365 155/193
f 759/1363 147/185 777/1415
f 272/364 204/242 270/360
f 234/288 45/59 232/284
f 740/1310 249/318 778/1418
f 249/318 124/154 116/140
f 124/154 782/1430 250/320
f 124/154 741/1313 782/1430
f 740/1310 124/154 249/318
f 756/1356 192/230 185/223
f 192/230 755/1354 263/346
f 225/270 12/14 223/266
f 748/1334 241/302 780/1424
f 241/302 91/105 86/100
f 91/105 763/1374 244/308
f 91/105 749/1337 763/1374
f 748/1334 91/105 241/302
f 163/201 760/1365 757/1358
f 274/368 207/245 272/364
f 236/292 53/67 234/288
f 738/1304 250/320 783/1433
f 250/320 130/163 124/154
f 130/163 765/1379 253/326
f 130/163 735/1295 765/1379
f 738/1304 130/163 250/320
f 266/352 192/230 263/346
f 228/276 22/28 225/270
f 746/1328 244/308 762/1371
f 244/308 102/120 91/105
f 102/120 768/1388 245/310
f 102/120 743/1319 768/1388
f 746/1328 102/120 244/308
f 171/209 757/1358 758/1360
f 276/372 211/249 274/368
f 323/423 190/228 326/426
f 315/415 159/197 317/417
f 701/1213 695/1198 699/1208
f 695/1198 205/243 209/247
f 205/243 701/1213 333/433
f 591/914 716/1249 588/908
f 527/782 547/824 523/774
f 591/914 527/782 716/1249
f 551/832 591/914 126/157
f 527/782 551/832 547/824
f 328/428 190/228 194/232
f 317/417 166/204 319/419
f 537/804 536/802 534/798
f 536/802 209/247 213/251
f 209/247 537/804 695/1198
f 418/559 311/411 425/572
f 311/411 715/1247 313/413
f 551/832 134/168 546/822
f 329/429 194/232 198/236
f 319/419 173/211 322/422
f 536/802 541/812 543/816
f 541/812 213/251 217/255
f 530/788 144/182 531/790
f 144/182 546/822 134/168
f 332/432 198/236 202/240
f 322/422 181/219 323/423
f 541/812 522/772 550/830
f 541/812 526/780 522/772
f 595/922 217/255 598/928
f 526/780 585/902 722/1263
f 585/902 217/255 595/922
f 217/255 526/780 541/812
f 539/808 315/415 697/1203
f 315/415 144/182 152/190
f 144/182 539/808 531/790
f 333/433 202/240 205/243
f 467/659 387/489 463/651
f 387/489 455/635 390/492
f 462/649 362/464 470/665
f 362/464 465/655 364/466
f 476/677 364/466 465/655
f 366/468 697/1203 315/415
f 697/1203 478/681 692/1191
f 478/681 364/466 476/677
f 366/468 478/681 697/1203
f 366/468 317/417 368/470
f 368/470 319/419 370/472
f 370/472 322/422 372/474
f 372/474 323/423 374/476
f 374/476 326/426 375/477
f 378/480 326/426 328/428
f 380/482 328/428 329/429
f 381/483 329/429 332/432
f 383/485 332/432 333/433
f 386/488 701/1213 693/1193
f 701/1213 383/485 333/433
f 460/645 357/459 447/618
f 357/459 457/639 359/461
f 386/488 463/651 387/489
f 463/651 473/671 471/667
f 473/671 693/1193 689/1183
f 386/488 473/671 463/651
f 457/639 362/464 359/461
f 370/472 675/1143 368/470
f 661/1103 372/474 665/1114
f 374/476 665/1115 372/474
f 414/551 403/524 405/528
f 375/477 667/1121 374/476
f 405/529 399/513 407/534
f 375/477 655/1085 657/1091
f 410/541 399/514 401/518
f 378/480 663/1109 655/1086
f 411/544 401/519 395/505
f 659/1096 380/482 381/483
f 381/483 673/1136 659/1097
f 383/485 669/1125 673/1137
f 449/622 359/461 688/1180
f 359/461 442/608 357/459
f 386/488 679/1154 669/1126
f 688/1181 362/464 681/1159
f 684/1168 387/489 390/492
f 364/466 681/1160 362/464
f 366/468 677/1149 364/466
f 368/470 671/1132 366/468
usemtl Material
f 25/35 29/41 20/26
f 136/171 5/6 1/1
f 154/192 35/49 32/46
f 164/202 165/203 51/65
f 178/216 182/220 85/99
f 112/134 98/114 110/132
f 20/26 112/134 123/152
f 98/114 136/171 129/162
f 5/6 154/192 150/188
f 32/46 35/49 165/203
f 65/79 70/84 182/220
f 27/38 120/148 117/141
f 19/24 27/37 23/31
f 41/55 146/184 141/179
f 2/2 4/5 135/169
f 33/47 37/51 153/191
f 52/66 167/205 161/199
f 60/74 57/71 157/195
f 76/90 72/86 57/71
f 66/80 68/82 52/66
f 584/899 568/867 94/108
f 578/887 582/895 80/94
f 84/98 184/222 177/215
f 109/130 96/111 114/137
f 106/125 127/158 140/178
f 121/149 114/137 19/24
f 120/148 106/125 100/117
f 127/158 13/15 10/12
f 131/165 135/169 96/111
f 149/187 153/191 4/5
f 146/184 10/12 13/15
f 169/207 157/195 41/55
f 167/205 37/51 33/47
f 188/226 175/213 72/86
f 184/222 68/82 66/80
f 25/35 20/26 16/20
f 136/171 1/1 129/162
f 154/192 32/46 150/188
f 164/202 51/65 48/62
f 178/216 85/99 82/96
f 112/134 110/132 123/152
f 20/26 123/152 16/20
f 98/114 129/162 110/132
f 5/6 150/188 1/1
f 32/46 165/203 164/202
f 65/79 182/220 178/216
f 27/38 117/141 23/30
f 19/24 23/31 15/18
f 41/55 141/179 44/58
f 2/2 135/169 131/165
f 33/47 153/191 149/187
f 52/66 161/199 49/63
f 60/74 157/195 169/207
f 76/90 57/71 60/74
f 66/80 52/66 49/63
f 584/899 94/108 580/891
f 94/108 568/867 88/102
f 578/887 80/94 569/869
f 80/94 582/895 84/98
f 84/98 177/215 80/94
f 109/130 114/137 121/149
f 106/125 140/178 100/117
f 121/149 19/24 15/18
f 120/148 100/117 117/141
f 127/158 10/12 140/178
f 131/165 96/111 109/130
f 149/187 4/5 2/2
f 146/184 13/15 141/179
f 169/207 41/55 44/58
f 167/205 33/47 161/199
f 188/226 72/86 76/90
f 184/222 66/80 177/215
usemtl 
f 556/843 8/10 558/848
f 553/836 568/868 22/28
f 781/1425 780/1422 241/301
f 240/299 775/1407 774/1404
f 768/1386 767/1383 245/309
f 244/307 763/1372 762/1369
f 779/1419 778/1416 249/317
f 247/313 773/1401 772/1398
f 765/1377 766/1380 253/325
f 250/319 782/1428 783/1431
f 776/1410 777/1413 257/333
f 255/329 770/1392 771/1395
f 272/363 236/291 222/262
f 716/1249 589/909 588/908
f 416/555 422/566 336/436
f 712/1240 313/413 715/1247
f 726/1273 562/856 558/848
f 422/566 426/573 280/379
f 710/1235 336/436 706/1225
f 704/1221 708/1230 313/413
f 390/492 455/635 453/631
f 513/754 336/436 280/379
f 453/629 451/625 338/440
f 357/459 444/611 446/616
f 397/508 391/493 414/549
f 395/503 393/499 411/542
f 338/440 451/625 439/601
f 644/1052 641/1043 636/1029
f 640/1040 638/1035 647/1060
f 390/492 338/439 686/1175
f 553/836 8/10 556/843
f 8/10 22/28 18/22
f 22/28 584/900 12/14
f 22/28 568/868 584/900
f 553/836 22/28 8/10
f 753/1349 263/345 755/1353
f 263/345 268/355 266/351
f 268/355 272/363 270/359
f 272/363 276/371 274/367
f 276/371 222/262 277/373
f 222/262 225/269 223/265
f 225/269 229/277 228/275
f 229/277 234/287 232/283
f 238/295 764/1376 769/1390
f 753/1349 268/355 263/345
f 236/291 764/1376 238/295
f 753/1349 272/363 268/355
f 236/291 753/1349 764/1376
f 229/277 236/291 234/287
f 222/262 229/277 225/269
f 272/363 222/262 276/371
f 236/291 272/363 753/1349
f 222/262 236/291 229/277
f 416/555 336/436 710/1235
f 726/1273 558/848 8/10
f 562/856 726/1273 724/1268
f 422/566 280/379 336/436
f 704/1221 313/413 712/1240
f 390/492 453/631 338/439
f 336/436 513/754 706/1225
f 513/754 280/379 508/743
f 357/459 446/616 447/618
f 338/440 439/601 686/1174
f 390/492 686/1175 684/1169
